<svg width="250" height="399" viewBox="0 0 250 399" fill="none" xmlns="http://www.w3.org/2000/svg">
<g filter="url(#filter0_d_0_1)">
<path d="M5 390.87C5 392.047 5.95344 393 7.12956 393H242.161C243.729 393 245 391.729 245 390.161V29C245 15.1929 233.807 4 220 4H30C16.1929 4 5 15.1929 5 29V390.87Z" fill="white"/>
<path d="M5.5 390.87C5.5 391.77 6.22958 392.5 7.12956 392.5H242.161C243.453 392.5 244.5 391.453 244.5 390.161V29C244.5 15.4691 233.531 4.5 220 4.5H30C16.469 4.5 5.5 15.469 5.5 29V390.87Z" stroke="#EBE9E9"/>
</g>
<path d="M89.4068 78H242.966C244.089 78 245 77.0894 245 75.9661V29C245 15.1929 233.807 4 220 4H30C16.1929 4 5 15.1929 5 29V75.9661C5 77.0894 5.91061 78 7.0339 78H89.4068Z" fill="#6975E8"/>
<path d="M79.8846 34.3359H86.0516V35.9985H83.9715V43.3447H86.0516V45H79.8846V43.3447H81.9134V35.9985H79.8846V34.3359ZM88.8426 45V37.0752H90.6883L90.8128 38.1738C90.9153 38.0273 91.0276 37.8931 91.1497 37.771C91.2718 37.6489 91.4012 37.5391 91.5379 37.4414C91.7722 37.2754 92.0286 37.1484 92.3069 37.0605C92.5852 36.9727 92.8806 36.9287 93.1931 36.9287C93.5935 36.9287 93.9597 36.9873 94.2918 37.1045C94.6238 37.2217 94.9119 37.4072 95.156 37.6611C95.3953 37.9199 95.5808 38.252 95.7127 38.6572C95.8494 39.0576 95.9178 39.5459 95.9178 40.1221V45H93.8816V40.1514C93.8816 39.8389 93.845 39.5825 93.7718 39.3823C93.7034 39.1772 93.6033 39.0161 93.4715 38.8989C93.3396 38.7817 93.1809 38.7012 92.9954 38.6572C92.8098 38.6084 92.5999 38.584 92.3655 38.584C92.1702 38.584 91.9895 38.606 91.8235 38.6499C91.6624 38.6938 91.5183 38.7598 91.3914 38.8477C91.2888 38.9111 91.1961 38.9868 91.1131 39.0747C91.0301 39.1626 90.9544 39.2603 90.886 39.3677V45H88.8426ZM97.9689 40.979C97.9689 40.3784 98.0373 39.8291 98.174 39.3311C98.3156 38.833 98.5207 38.4058 98.7893 38.0493C99.0578 37.6929 99.3825 37.417 99.7634 37.2217C100.149 37.0264 100.589 36.9287 101.082 36.9287C101.497 36.9287 101.861 37.0044 102.173 37.1558C102.49 37.3022 102.771 37.5122 103.015 37.7856V33.75H105.059V45H103.22L103.118 44.1724C102.869 44.48 102.576 44.7192 102.239 44.8901C101.902 45.061 101.511 45.1465 101.067 45.1465C100.584 45.1465 100.149 45.0464 99.7634 44.8462C99.3825 44.6411 99.0603 44.3604 98.7966 44.0039C98.528 43.6475 98.3229 43.2251 98.1813 42.7368C98.0397 42.2437 97.9689 41.709 97.9689 41.1328V40.979ZM100.005 41.1328C100.005 41.4648 100.032 41.7749 100.086 42.063C100.144 42.3462 100.237 42.5928 100.364 42.8027C100.491 43.0176 100.654 43.186 100.855 43.3081C101.055 43.4302 101.299 43.4912 101.587 43.4912C101.939 43.4912 102.229 43.4155 102.459 43.2642C102.693 43.1128 102.879 42.9053 103.015 42.6416V39.4336C102.879 39.165 102.696 38.9575 102.466 38.811C102.237 38.6597 101.948 38.584 101.602 38.584C101.314 38.584 101.067 38.6475 100.862 38.7744C100.662 38.8965 100.498 39.0649 100.371 39.2798C100.244 39.4995 100.152 39.7559 100.093 40.0488C100.034 40.3369 100.005 40.647 100.005 40.979V41.1328ZM108.062 37.0752H112.376V43.3447H114.522V45H108.062V43.3447H110.318V38.7378H108.062V37.0752ZM110.172 35.0464C110.172 34.8901 110.198 34.7461 110.252 34.6143C110.311 34.4775 110.391 34.3604 110.494 34.2627C110.596 34.1699 110.718 34.0967 110.86 34.043C111.006 33.9893 111.168 33.9624 111.343 33.9624C111.705 33.9624 111.99 34.0649 112.2 34.27C112.415 34.4702 112.523 34.729 112.523 35.0464C112.523 35.3638 112.415 35.625 112.2 35.8301C111.99 36.0303 111.705 36.1304 111.343 36.1304C111.168 36.1304 111.006 36.1035 110.86 36.0498C110.718 35.9961 110.596 35.9204 110.494 35.8228C110.391 35.73 110.311 35.6177 110.252 35.4858C110.198 35.3491 110.172 35.2026 110.172 35.0464ZM119.378 45L116.354 37.0752H118.478L120.221 42.6636L120.331 43.2202L120.44 42.6636L122.176 37.0752H124.3L121.29 45H119.378ZM126.74 37.0752H131.054V43.3447H133.2V45H126.74V43.3447H128.996V38.7378H126.74V37.0752ZM128.849 35.0464C128.849 34.8901 128.876 34.7461 128.93 34.6143C128.988 34.4775 129.069 34.3604 129.171 34.2627C129.274 34.1699 129.396 34.0967 129.538 34.043C129.684 33.9893 129.845 33.9624 130.021 33.9624C130.382 33.9624 130.668 34.0649 130.878 34.27C131.093 34.4702 131.2 34.729 131.2 35.0464C131.2 35.3638 131.093 35.625 130.878 35.8301C130.668 36.0303 130.382 36.1304 130.021 36.1304C129.845 36.1304 129.684 36.1035 129.538 36.0498C129.396 35.9961 129.274 35.9204 129.171 35.8228C129.069 35.73 128.988 35.6177 128.93 35.4858C128.876 35.3491 128.849 35.2026 128.849 35.0464ZM135.324 40.979C135.324 40.3784 135.392 39.8291 135.529 39.3311C135.671 38.833 135.876 38.4058 136.144 38.0493C136.413 37.6929 136.738 37.417 137.119 37.2217C137.504 37.0264 137.944 36.9287 138.437 36.9287C138.852 36.9287 139.216 37.0044 139.528 37.1558C139.846 37.3022 140.126 37.5122 140.37 37.7856V33.75H142.414V45H140.576L140.473 44.1724C140.224 44.48 139.931 44.7192 139.594 44.8901C139.257 45.061 138.867 45.1465 138.422 45.1465C137.939 45.1465 137.504 45.0464 137.119 44.8462C136.738 44.6411 136.415 44.3604 136.152 44.0039C135.883 43.6475 135.678 43.2251 135.537 42.7368C135.395 42.2437 135.324 41.709 135.324 41.1328V40.979ZM137.36 41.1328C137.36 41.4648 137.387 41.7749 137.441 42.063C137.499 42.3462 137.592 42.5928 137.719 42.8027C137.846 43.0176 138.01 43.186 138.21 43.3081C138.41 43.4302 138.654 43.4912 138.942 43.4912C139.294 43.4912 139.584 43.4155 139.814 43.2642C140.048 43.1128 140.234 42.9053 140.37 42.6416V39.4336C140.234 39.165 140.051 38.9575 139.821 38.811C139.592 38.6597 139.304 38.584 138.957 38.584C138.669 38.584 138.422 38.6475 138.217 38.7744C138.017 38.8965 137.853 39.0649 137.726 39.2798C137.599 39.4995 137.507 39.7559 137.448 40.0488C137.39 40.3369 137.36 40.647 137.36 40.979V41.1328ZM150.046 45L149.929 43.8867C149.66 44.2822 149.336 44.5923 148.955 44.8169C148.579 45.0415 148.166 45.1538 147.717 45.1538C147.307 45.1538 146.931 45.0903 146.589 44.9634C146.247 44.8364 145.954 44.6338 145.71 44.3555C145.466 44.082 145.276 43.7329 145.139 43.3081C145.007 42.8784 144.941 42.3633 144.941 41.7627V37.0752H146.977V41.7773C146.977 42.0996 146.999 42.3706 147.043 42.5903C147.092 42.8101 147.168 42.9858 147.27 43.1177C147.373 43.2544 147.507 43.3521 147.673 43.4106C147.839 43.4692 148.042 43.4985 148.281 43.4985C148.496 43.4985 148.689 43.4766 148.86 43.4326C149.035 43.3887 149.189 43.3252 149.321 43.2422C149.433 43.1689 149.533 43.0811 149.621 42.9785C149.709 42.876 149.785 42.7612 149.848 42.6343V37.0752H151.892V45H150.046ZM159.165 45C159.116 44.9023 159.075 44.79 159.041 44.6631C159.007 44.5361 158.977 44.4019 158.953 44.2603C158.841 44.3823 158.711 44.4971 158.565 44.6045C158.418 44.7119 158.257 44.8047 158.081 44.8828C157.901 44.9658 157.703 45.0293 157.488 45.0732C157.273 45.1221 157.041 45.1465 156.792 45.1465C156.387 45.1465 156.013 45.0879 155.672 44.9707C155.335 44.8535 155.044 44.6899 154.8 44.48C154.556 44.27 154.365 44.021 154.229 43.7329C154.092 43.4399 154.024 43.1226 154.024 42.7808C154.024 42.3413 154.109 41.9531 154.28 41.6162C154.451 41.2744 154.707 40.9937 155.049 40.7739C155.357 40.5737 155.735 40.4224 156.184 40.3198C156.638 40.2124 157.158 40.1587 157.744 40.1587H158.88V39.6899C158.88 39.5044 158.85 39.3384 158.792 39.1919C158.733 39.0405 158.645 38.9111 158.528 38.8037C158.406 38.6914 158.252 38.606 158.067 38.5474C157.886 38.4839 157.674 38.4521 157.429 38.4521C157.215 38.4521 157.029 38.479 156.873 38.5327C156.717 38.5815 156.59 38.6523 156.492 38.7451C156.404 38.8281 156.338 38.9282 156.294 39.0454C156.255 39.1626 156.236 39.292 156.236 39.4336H154.199C154.199 39.0967 154.273 38.7769 154.419 38.4741C154.571 38.1714 154.79 37.9053 155.078 37.6758C155.362 37.4463 155.708 37.2656 156.118 37.1338C156.533 36.9971 157.007 36.9287 157.539 36.9287C158.018 36.9287 158.462 36.9873 158.872 37.1045C159.287 37.2217 159.646 37.395 159.949 37.6245C160.252 37.854 160.488 38.1445 160.659 38.4961C160.83 38.8428 160.916 39.2456 160.916 39.7046V43.103C160.916 43.5278 160.943 43.8794 160.996 44.1577C161.05 44.436 161.128 44.6753 161.231 44.8755V45H159.165ZM157.224 43.5718C157.429 43.5718 157.62 43.5474 157.796 43.4985C157.971 43.4497 158.13 43.3862 158.272 43.3081C158.413 43.23 158.535 43.1421 158.638 43.0444C158.74 42.9419 158.821 42.8394 158.88 42.7368V41.3745H157.84C157.522 41.3745 157.251 41.4062 157.027 41.4697C156.802 41.5283 156.619 41.6113 156.477 41.7188C156.336 41.8311 156.231 41.9653 156.162 42.1216C156.094 42.2729 156.06 42.439 156.06 42.6196C156.06 42.7612 156.084 42.8931 156.133 43.0151C156.187 43.1323 156.262 43.2324 156.36 43.3154C156.458 43.3936 156.577 43.457 156.719 43.5059C156.865 43.5498 157.034 43.5718 157.224 43.5718ZM163.978 33.75H168.409V43.3447H170.679V45H163.978V43.3447H166.351V35.4126H163.978V33.75Z" fill="#131925"/>
<rect x="13" y="346" width="225" height="34" rx="6" fill="#6975E8"/>
<g filter="url(#filter1_dd_0_1)">
<rect x="13" y="126" width="225" height="32" rx="16" fill="white"/>
<rect x="13.5" y="126.5" width="224" height="31" rx="15.5" stroke="#E4E4E4"/>
</g>
<path d="M28.8374 148H27.7534V140.852L25.521 141.701V140.711L28.7495 139.469H28.8374V148ZM38.2143 144.736C38.2143 145.279 38.1518 145.762 38.0268 146.184C37.9018 146.602 37.7221 146.953 37.4877 147.238C37.2534 147.527 36.9662 147.746 36.6264 147.895C36.2866 148.043 35.8979 148.117 35.4604 148.117C35.0268 148.117 34.6381 148.045 34.2944 147.9C33.9506 147.752 33.6596 147.531 33.4213 147.238C33.183 146.953 33.0014 146.602 32.8764 146.184C32.7514 145.762 32.6889 145.279 32.6889 144.736V142.738C32.6889 142.195 32.7514 141.715 32.8764 141.297C33.0014 140.875 33.183 140.52 33.4213 140.23C33.6557 139.941 33.9428 139.723 34.2827 139.574C34.6264 139.422 35.0151 139.346 35.4487 139.346C35.8862 139.346 36.2748 139.422 36.6147 139.574C36.9584 139.723 37.2495 139.941 37.4877 140.23C37.7221 140.52 37.9018 140.875 38.0268 141.297C38.1518 141.715 38.2143 142.195 38.2143 142.738V144.736ZM33.7787 144.52L37.101 141.971C37.0698 141.689 37.0131 141.441 36.9311 141.227C36.853 141.008 36.7455 140.826 36.6088 140.682C36.476 140.533 36.312 140.422 36.1166 140.348C35.9252 140.273 35.7026 140.236 35.4487 140.236C35.1909 140.236 34.9623 140.277 34.7631 140.359C34.5678 140.438 34.4018 140.553 34.2651 140.705C34.101 140.896 33.978 141.145 33.8959 141.449C33.8178 141.75 33.7787 142.1 33.7787 142.498V143.928C33.7787 144.025 33.7787 144.123 33.7787 144.221C33.7787 144.318 33.7787 144.418 33.7787 144.52ZM37.1245 144.965V143.758C37.1245 143.699 37.1245 143.588 37.1245 143.424C37.1245 143.256 37.1245 143.117 37.1245 143.008L33.808 145.545C33.8432 145.83 33.9057 146.082 33.9955 146.301C34.0854 146.516 34.2026 146.693 34.3471 146.834C34.4799 146.967 34.6401 147.068 34.8276 147.139C35.0151 147.205 35.226 147.238 35.4604 147.238C35.7065 147.238 35.9252 147.201 36.1166 147.127C36.308 147.053 36.4702 146.945 36.603 146.805C36.7827 146.613 36.9135 146.363 36.9955 146.055C37.0815 145.746 37.1245 145.383 37.1245 144.965ZM50.0247 148L47.3294 139.469H48.4895L50.3645 145.838L50.4876 146.254L50.6165 145.826L52.5032 139.469H53.6575L50.968 148H50.0247ZM55.6398 141.66H58.8801V147.062H60.9484V148H55.6398V147.062H57.7961V142.604H55.6398V141.66ZM58.927 139.322H60.2395L58.6691 140.881H57.8488L58.927 139.322ZM62.8019 144.777C62.8019 144.305 62.8605 143.871 62.9777 143.477C63.0988 143.078 63.2706 142.736 63.4933 142.451C63.712 142.166 63.9777 141.943 64.2902 141.783C64.6027 141.623 64.9523 141.543 65.339 141.543C65.7179 141.543 66.048 141.607 66.3292 141.736C66.6144 141.861 66.8605 142.045 67.0675 142.287V139H68.1515V148H67.1554L67.1085 147.332C66.8976 147.59 66.6456 147.785 66.3527 147.918C66.0597 148.051 65.7179 148.117 65.3273 148.117C64.9445 148.117 64.5968 148.035 64.2843 147.871C63.9757 147.707 63.712 147.48 63.4933 147.191C63.2745 146.902 63.1046 146.562 62.9835 146.172C62.8624 145.777 62.8019 145.354 62.8019 144.9V144.777ZM63.8859 144.9C63.8859 145.209 63.9191 145.502 63.9855 145.779C64.0519 146.057 64.1554 146.301 64.296 146.512C64.4327 146.723 64.6085 146.891 64.8234 147.016C65.0382 147.137 65.296 147.197 65.5968 147.197C65.9601 147.197 66.2609 147.115 66.4991 146.951C66.7374 146.787 66.9269 146.566 67.0675 146.289V143.348C66.9269 143.09 66.7374 142.879 66.4991 142.715C66.2609 142.547 65.964 142.463 65.6085 142.463C65.3038 142.463 65.0421 142.525 64.8234 142.65C64.6085 142.775 64.4327 142.943 64.296 143.154C64.1554 143.369 64.0519 143.617 63.9855 143.898C63.9191 144.176 63.8859 144.469 63.8859 144.777V144.9ZM73.3448 148.117C72.8995 148.117 72.4893 148.041 72.1143 147.889C71.7432 147.736 71.4248 147.523 71.1592 147.25C70.8936 146.977 70.6866 146.652 70.5381 146.277C70.3897 145.902 70.3155 145.494 70.3155 145.053V144.807C70.3155 144.295 70.3975 143.838 70.5616 143.436C70.7256 143.029 70.9444 142.686 71.2178 142.404C71.4873 142.127 71.794 141.914 72.1377 141.766C72.4854 141.617 72.8409 141.543 73.2041 141.543C73.6612 141.543 74.0596 141.623 74.3995 141.783C74.7432 141.939 75.0284 142.156 75.2549 142.434C75.4815 142.715 75.6495 143.045 75.7588 143.424C75.8721 143.803 75.9287 144.213 75.9287 144.654V145.141H71.3995V145.182C71.4268 145.49 71.4873 145.762 71.5811 145.996C71.6787 146.23 71.8116 146.438 71.9795 146.617C72.1514 146.809 72.3584 146.959 72.6006 147.068C72.8428 147.178 73.1104 147.232 73.4034 147.232C73.7901 147.232 74.1338 147.154 74.4346 146.998C74.7354 146.842 74.9854 146.635 75.1846 146.377L75.8467 146.893C75.6358 147.213 75.3194 147.498 74.8975 147.748C74.4795 147.994 73.962 148.117 73.3448 148.117ZM73.2041 142.434C72.9854 142.434 72.7784 142.475 72.583 142.557C72.3877 142.635 72.212 142.75 72.0557 142.902C71.8995 143.059 71.7666 143.25 71.6573 143.477C71.5518 143.699 71.4776 143.957 71.4346 144.25H74.8448V144.197C74.8448 144.002 74.8077 143.793 74.7334 143.57C74.6592 143.344 74.5557 143.148 74.4229 142.984C74.2901 142.82 74.1221 142.688 73.919 142.586C73.7198 142.484 73.4815 142.434 73.2041 142.434ZM77.7763 144.771C77.7763 144.314 77.8427 143.891 77.9755 143.5C78.1084 143.105 78.2998 142.764 78.5498 142.475C78.7959 142.186 79.0966 141.959 79.4521 141.795C79.8076 141.627 80.208 141.543 80.6533 141.543C81.1025 141.543 81.5048 141.627 81.8603 141.795C82.2197 141.959 82.5244 142.186 82.7744 142.475C83.0205 142.764 83.2099 143.105 83.3427 143.5C83.4755 143.891 83.542 144.314 83.542 144.771V144.9C83.542 145.357 83.4755 145.781 83.3427 146.172C83.2099 146.562 83.0205 146.902 82.7744 147.191C82.5244 147.48 82.2216 147.707 81.8662 147.871C81.5107 148.035 81.1103 148.117 80.665 148.117C80.2158 148.117 79.8115 148.035 79.4521 147.871C79.0966 147.707 78.7959 147.48 78.5498 147.191C78.2998 146.902 78.1084 146.562 77.9755 146.172C77.8427 145.781 77.7763 145.357 77.7763 144.9V144.771ZM78.8603 144.9C78.8603 145.213 78.8974 145.512 78.9716 145.797C79.0459 146.078 79.1591 146.326 79.3115 146.541C79.4599 146.756 79.6474 146.926 79.874 147.051C80.1005 147.176 80.3642 147.238 80.665 147.238C80.9619 147.238 81.2216 147.176 81.4443 147.051C81.6709 146.926 81.8603 146.756 82.0127 146.541C82.1611 146.326 82.2724 146.078 82.3466 145.797C82.4209 145.512 82.458 145.213 82.458 144.9V144.771C82.458 144.463 82.4189 144.168 82.3408 143.887C82.2666 143.602 82.1552 143.352 82.0068 143.137C81.8545 142.922 81.665 142.752 81.4384 142.627C81.2158 142.498 80.9541 142.434 80.6533 142.434C80.3525 142.434 80.0908 142.498 79.8681 142.627C79.6455 142.752 79.4599 142.922 79.3115 143.137C79.1591 143.352 79.0459 143.602 78.9716 143.887C78.8974 144.168 78.8603 144.463 78.8603 144.771V144.9ZM89.8309 146.318C89.8309 146.189 89.8055 146.074 89.7548 145.973C89.704 145.867 89.618 145.771 89.497 145.686C89.3759 145.6 89.2157 145.521 89.0165 145.451C88.8173 145.377 88.5692 145.311 88.2723 145.252C87.9091 145.178 87.577 145.088 87.2762 144.982C86.9794 144.877 86.7255 144.75 86.5145 144.602C86.2997 144.457 86.1337 144.287 86.0165 144.092C85.8993 143.893 85.8407 143.662 85.8407 143.4C85.8407 143.143 85.9012 142.902 86.0223 142.68C86.1434 142.453 86.3134 142.256 86.5321 142.088C86.7509 141.92 87.0106 141.787 87.3114 141.689C87.6161 141.592 87.9501 141.543 88.3134 141.543C88.704 141.543 89.0555 141.594 89.368 141.695C89.6805 141.797 89.9462 141.938 90.1649 142.117C90.3837 142.297 90.5516 142.508 90.6688 142.75C90.7899 142.988 90.8505 143.246 90.8505 143.523H89.7665C89.7665 143.387 89.7313 143.254 89.661 143.125C89.5907 142.992 89.493 142.875 89.368 142.773C89.243 142.672 89.0907 142.59 88.911 142.527C88.7352 142.465 88.536 142.434 88.3134 142.434C88.0829 142.434 87.8798 142.459 87.704 142.51C87.5321 142.561 87.3895 142.629 87.2762 142.715C87.1591 142.801 87.0712 142.9 87.0126 143.014C86.954 143.127 86.9247 143.244 86.9247 143.365C86.9247 143.49 86.9481 143.602 86.995 143.699C87.0419 143.797 87.1239 143.885 87.2411 143.963C87.3544 144.041 87.5067 144.111 87.6981 144.174C87.8934 144.236 88.1395 144.297 88.4364 144.355C88.827 144.438 89.1766 144.533 89.4852 144.643C89.7938 144.748 90.0536 144.875 90.2645 145.023C90.4755 145.176 90.6356 145.352 90.745 145.551C90.8583 145.75 90.9149 145.98 90.9149 146.242C90.9149 146.523 90.8505 146.779 90.7216 147.01C90.5966 147.24 90.4208 147.438 90.1942 147.602C89.9677 147.766 89.6962 147.893 89.3798 147.982C89.0634 148.072 88.7177 148.117 88.3427 148.117C87.913 148.117 87.5302 148.061 87.1942 147.947C86.8583 147.83 86.5751 147.676 86.3446 147.484C86.1102 147.297 85.9305 147.078 85.8055 146.828C85.6845 146.578 85.6239 146.318 85.6239 146.049H86.7079C86.7235 146.271 86.7821 146.459 86.8837 146.611C86.9891 146.764 87.12 146.887 87.2762 146.98C87.4286 147.074 87.5985 147.141 87.786 147.18C87.9735 147.219 88.1591 147.238 88.3427 147.238C88.6317 147.238 88.8837 147.205 89.0985 147.139C89.3134 147.068 89.4813 146.973 89.6024 146.852C89.6766 146.777 89.7333 146.695 89.7723 146.605C89.8114 146.516 89.8309 146.42 89.8309 146.318ZM103.335 144.812H102.087V148H100.44V139.469H103.3C103.772 139.469 104.2 139.525 104.583 139.639C104.966 139.748 105.294 139.91 105.567 140.125C105.837 140.34 106.044 140.607 106.188 140.928C106.337 141.248 106.411 141.619 106.411 142.041C106.411 142.346 106.374 142.621 106.3 142.867C106.229 143.109 106.128 143.326 105.995 143.518C105.858 143.713 105.694 143.883 105.503 144.027C105.315 144.172 105.104 144.297 104.87 144.402L106.704 147.924V148H104.94L103.335 144.812ZM102.087 143.477H103.305C103.559 143.477 103.782 143.441 103.973 143.371C104.169 143.297 104.327 143.191 104.448 143.055C104.55 142.945 104.626 142.814 104.676 142.662C104.731 142.51 104.759 142.34 104.759 142.152C104.759 141.926 104.723 141.727 104.653 141.555C104.587 141.379 104.485 141.234 104.348 141.121C104.227 141.02 104.079 140.941 103.903 140.887C103.727 140.832 103.526 140.805 103.3 140.805H102.087V143.477ZM112.266 145.762C112.266 145.598 112.241 145.453 112.19 145.328C112.143 145.199 112.067 145.082 111.962 144.977C111.852 144.871 111.71 144.775 111.534 144.689C111.362 144.6 111.153 144.512 110.907 144.426C110.512 144.285 110.153 144.137 109.829 143.98C109.505 143.824 109.229 143.643 109.003 143.436C108.772 143.229 108.594 142.988 108.469 142.715C108.344 142.438 108.282 142.109 108.282 141.73C108.282 141.398 108.339 141.096 108.452 140.822C108.565 140.545 108.725 140.305 108.932 140.102C109.139 139.898 109.389 139.734 109.682 139.609C109.975 139.484 110.301 139.404 110.661 139.369V138.109H111.598V139.381C111.95 139.428 112.266 139.523 112.548 139.668C112.829 139.812 113.069 140 113.268 140.23C113.464 140.465 113.614 140.74 113.719 141.057C113.829 141.369 113.883 141.721 113.883 142.111H112.255C112.255 141.861 112.223 141.643 112.161 141.455C112.098 141.268 112.01 141.113 111.897 140.992C111.796 140.887 111.673 140.807 111.528 140.752C111.387 140.697 111.231 140.67 111.059 140.67C110.86 140.67 110.686 140.697 110.538 140.752C110.393 140.803 110.274 140.875 110.18 140.969C110.087 141.066 110.016 141.18 109.969 141.309C109.926 141.438 109.905 141.578 109.905 141.73C109.905 141.883 109.926 142.02 109.969 142.141C110.016 142.258 110.094 142.367 110.204 142.469C110.309 142.57 110.45 142.668 110.626 142.762C110.801 142.852 111.02 142.943 111.282 143.037C111.676 143.186 112.034 143.34 112.354 143.5C112.674 143.656 112.95 143.838 113.18 144.045C113.407 144.256 113.581 144.5 113.702 144.777C113.827 145.051 113.889 145.375 113.889 145.75C113.889 146.094 113.833 146.404 113.719 146.682C113.606 146.955 113.444 147.191 113.233 147.391C113.022 147.59 112.768 147.75 112.471 147.871C112.174 147.988 111.842 148.064 111.475 148.1V149.248H110.544V148.1C110.212 148.068 109.889 147.996 109.577 147.883C109.264 147.766 108.989 147.598 108.751 147.379C108.508 147.16 108.315 146.885 108.171 146.553C108.026 146.217 107.954 145.814 107.954 145.346H109.589C109.589 145.627 109.63 145.863 109.712 146.055C109.794 146.242 109.901 146.391 110.034 146.5C110.163 146.613 110.311 146.693 110.479 146.74C110.647 146.787 110.819 146.811 110.995 146.811C111.217 146.811 111.411 146.783 111.575 146.729C111.739 146.67 111.874 146.59 111.979 146.488C112.073 146.398 112.143 146.291 112.19 146.166C112.241 146.041 112.266 145.906 112.266 145.762ZM121.971 148H119.502V138.183L116.267 139.343V137.216L121.839 135.203H121.971V148ZM127.249 141.698L127.979 135.203H135.081V137.277H129.992L129.684 140.09C129.866 139.984 130.124 139.876 130.458 139.765C130.791 139.653 131.175 139.598 131.609 139.598C132.224 139.598 132.772 139.697 133.252 139.896C133.739 140.09 134.149 140.371 134.483 140.74C134.811 141.109 135.063 141.561 135.239 142.094C135.415 142.627 135.502 143.23 135.502 143.904C135.502 144.479 135.417 145.023 135.248 145.539C135.078 146.055 134.817 146.509 134.465 146.901C134.114 147.294 133.671 147.604 133.138 147.833C132.605 148.062 131.975 148.176 131.249 148.176C130.698 148.176 130.165 148.094 129.649 147.93C129.139 147.766 128.685 147.525 128.287 147.209C127.888 146.893 127.563 146.506 127.311 146.049C127.065 145.586 126.933 145.059 126.916 144.467H129.324C129.382 145.023 129.582 145.454 129.921 145.759C130.267 146.063 130.707 146.216 131.24 146.216C131.568 146.216 131.846 146.154 132.075 146.031C132.309 145.908 132.499 145.738 132.646 145.521C132.787 145.305 132.889 145.047 132.954 144.748C133.024 144.449 133.059 144.127 133.059 143.781C133.059 143.441 133.015 143.131 132.927 142.85C132.845 142.562 132.716 142.316 132.541 142.111C132.365 141.906 132.145 141.748 131.881 141.637C131.618 141.525 131.307 141.47 130.95 141.47C130.709 141.47 130.501 141.49 130.326 141.531C130.15 141.572 129.995 141.625 129.86 141.689C129.725 141.754 129.605 141.83 129.499 141.918C129.394 142 129.294 142.088 129.201 142.182L127.249 141.698Z" fill="#131925"/>
<path d="M98.1497 363.883C98.1178 364.384 98.0085 364.835 97.8216 365.236C97.6393 365.637 97.3932 365.979 97.0833 366.262C96.7734 366.544 96.4043 366.763 95.9759 366.918C95.5475 367.068 95.0736 367.144 94.554 367.144C94.1439 367.144 93.7633 367.091 93.4124 366.986C93.0661 366.877 92.7539 366.722 92.4759 366.521C92.2207 366.335 91.9928 366.109 91.7923 365.845C91.5963 365.58 91.43 365.289 91.2933 364.97C91.1611 364.651 91.0586 364.3 90.9857 363.917C90.9173 363.534 90.8831 363.129 90.8831 362.7V361.36C90.8831 360.959 90.915 360.579 90.9788 360.219C91.0426 359.854 91.1383 359.517 91.2659 359.207C91.4118 358.829 91.6032 358.492 91.8402 358.195C92.0771 357.899 92.346 357.648 92.6468 357.443C92.9157 357.27 93.2096 357.138 93.5286 357.047C93.8522 356.951 94.1986 356.903 94.5677 356.903C95.1146 356.903 95.5999 356.981 96.0238 357.136C96.4521 357.291 96.8167 357.512 97.1175 357.799C97.4183 358.086 97.6553 358.437 97.8284 358.852C98.0016 359.266 98.111 359.733 98.1566 360.253H96.2425C96.2243 359.957 96.1787 359.697 96.1058 359.474C96.0374 359.25 95.9372 359.063 95.805 358.913C95.6683 358.767 95.4974 358.658 95.2923 358.585C95.0918 358.507 94.8502 358.469 94.5677 358.469C94.4173 358.469 94.276 358.485 94.1439 358.517C94.0163 358.549 93.8978 358.596 93.7884 358.66C93.6015 358.77 93.442 358.927 93.3099 359.132C93.1823 359.332 93.0797 359.567 93.0023 359.836C92.943 360.046 92.8997 360.278 92.8724 360.533C92.845 360.784 92.8314 361.055 92.8314 361.347V362.7C92.8314 363.097 92.8519 363.452 92.8929 363.767C92.9385 364.076 93.0068 364.348 93.098 364.58C93.1618 364.74 93.237 364.881 93.3236 365.004C93.4147 365.127 93.5172 365.229 93.6312 365.312C93.7542 365.403 93.8909 365.471 94.0413 365.517C94.1963 365.558 94.3672 365.578 94.554 365.578C94.8047 365.578 95.0303 365.546 95.2308 365.482C95.4313 365.419 95.6022 365.318 95.7435 365.182C95.8848 365.045 95.9964 364.869 96.0784 364.655C96.1605 364.441 96.2106 364.184 96.2288 363.883H98.1497ZM104.666 367C104.621 366.909 104.582 366.804 104.55 366.686C104.518 366.567 104.491 366.442 104.468 366.31C104.363 366.424 104.242 366.531 104.106 366.631C103.969 366.731 103.819 366.818 103.655 366.891C103.486 366.968 103.301 367.027 103.101 367.068C102.9 367.114 102.684 367.137 102.451 367.137C102.073 367.137 101.725 367.082 101.406 366.973C101.091 366.863 100.82 366.711 100.592 366.515C100.364 366.319 100.186 366.086 100.059 365.817C99.9312 365.544 99.8674 365.248 99.8674 364.929C99.8674 364.519 99.9472 364.156 100.107 363.842C100.266 363.523 100.505 363.261 100.824 363.056C101.112 362.869 101.465 362.728 101.884 362.632C102.308 362.532 102.793 362.481 103.34 362.481H104.4V362.044C104.4 361.871 104.372 361.716 104.318 361.579C104.263 361.438 104.181 361.317 104.072 361.217C103.958 361.112 103.814 361.032 103.641 360.978C103.472 360.918 103.274 360.889 103.046 360.889C102.846 360.889 102.672 360.914 102.527 360.964C102.381 361.009 102.262 361.076 102.171 361.162C102.089 361.24 102.028 361.333 101.987 361.442C101.95 361.552 101.932 361.673 101.932 361.805H100.031C100.031 361.49 100.1 361.192 100.237 360.909C100.378 360.627 100.583 360.378 100.852 360.164C101.116 359.95 101.44 359.781 101.823 359.658C102.21 359.531 102.652 359.467 103.149 359.467C103.595 359.467 104.01 359.521 104.393 359.631C104.78 359.74 105.115 359.902 105.398 360.116C105.68 360.33 105.901 360.602 106.061 360.93C106.22 361.253 106.3 361.629 106.3 362.058V365.229C106.3 365.626 106.325 365.954 106.375 366.214C106.425 366.474 106.498 366.697 106.594 366.884V367H104.666ZM102.855 365.667C103.046 365.667 103.224 365.644 103.388 365.599C103.552 365.553 103.7 365.494 103.832 365.421C103.964 365.348 104.078 365.266 104.174 365.175C104.27 365.079 104.345 364.983 104.4 364.888V363.616H103.429C103.133 363.616 102.88 363.646 102.67 363.705C102.461 363.76 102.29 363.837 102.157 363.938C102.025 364.042 101.927 364.168 101.864 364.313C101.8 364.455 101.768 364.61 101.768 364.778C101.768 364.91 101.791 365.034 101.836 365.147C101.886 365.257 101.957 365.35 102.048 365.428C102.139 365.501 102.251 365.56 102.383 365.605C102.52 365.646 102.677 365.667 102.855 365.667ZM108.585 363.247C108.585 362.687 108.649 362.174 108.777 361.709C108.909 361.244 109.1 360.845 109.351 360.513C109.601 360.18 109.904 359.923 110.26 359.74C110.62 359.558 111.03 359.467 111.49 359.467C111.878 359.467 112.217 359.537 112.509 359.679C112.805 359.815 113.067 360.011 113.295 360.267V356.5H115.202V367H113.486L113.391 366.228C113.158 366.515 112.885 366.738 112.57 366.897C112.256 367.057 111.891 367.137 111.477 367.137C111.026 367.137 110.62 367.043 110.26 366.856C109.904 366.665 109.604 366.403 109.358 366.07C109.107 365.738 108.916 365.343 108.783 364.888C108.651 364.427 108.585 363.928 108.585 363.391V363.247ZM110.486 363.391C110.486 363.701 110.511 363.99 110.561 364.259C110.615 364.523 110.702 364.753 110.82 364.949C110.939 365.15 111.092 365.307 111.278 365.421C111.465 365.535 111.693 365.592 111.962 365.592C112.29 365.592 112.561 365.521 112.776 365.38C112.994 365.239 113.167 365.045 113.295 364.799V361.805C113.167 361.554 112.997 361.36 112.782 361.224C112.568 361.082 112.299 361.012 111.976 361.012C111.707 361.012 111.477 361.071 111.285 361.189C111.098 361.303 110.946 361.461 110.827 361.661C110.709 361.866 110.622 362.105 110.568 362.379C110.513 362.648 110.486 362.937 110.486 363.247V363.391ZM122.143 367C122.097 366.909 122.058 366.804 122.026 366.686C121.995 366.567 121.967 366.442 121.944 366.31C121.84 366.424 121.719 366.531 121.582 366.631C121.445 366.731 121.295 366.818 121.131 366.891C120.962 366.968 120.778 367.027 120.577 367.068C120.377 367.114 120.16 367.137 119.928 367.137C119.55 367.137 119.201 367.082 118.882 366.973C118.567 366.863 118.296 366.711 118.068 366.515C117.841 366.319 117.663 366.086 117.535 365.817C117.408 365.544 117.344 365.248 117.344 364.929C117.344 364.519 117.424 364.156 117.583 363.842C117.743 363.523 117.982 363.261 118.301 363.056C118.588 362.869 118.941 362.728 119.36 362.632C119.784 362.532 120.27 362.481 120.816 362.481H121.876V362.044C121.876 361.871 121.849 361.716 121.794 361.579C121.739 361.438 121.657 361.317 121.548 361.217C121.434 361.112 121.29 361.032 121.117 360.978C120.949 360.918 120.75 360.889 120.523 360.889C120.322 360.889 120.149 360.914 120.003 360.964C119.857 361.009 119.739 361.076 119.648 361.162C119.566 361.24 119.504 361.333 119.463 361.442C119.427 361.552 119.408 361.673 119.408 361.805H117.508C117.508 361.49 117.576 361.192 117.713 360.909C117.854 360.627 118.059 360.378 118.328 360.164C118.593 359.95 118.916 359.781 119.299 359.658C119.686 359.531 120.128 359.467 120.625 359.467C121.072 359.467 121.486 359.521 121.869 359.631C122.257 359.74 122.592 359.902 122.874 360.116C123.157 360.33 123.378 360.602 123.537 360.93C123.697 361.253 123.776 361.629 123.776 362.058V365.229C123.776 365.626 123.802 365.954 123.852 366.214C123.902 366.474 123.975 366.697 124.07 366.884V367H122.143ZM120.331 365.667C120.523 365.667 120.7 365.644 120.864 365.599C121.028 365.553 121.177 365.494 121.309 365.421C121.441 365.348 121.555 365.266 121.65 365.175C121.746 365.079 121.821 364.983 121.876 364.888V363.616H120.905C120.609 363.616 120.356 363.646 120.147 363.705C119.937 363.76 119.766 363.837 119.634 363.938C119.502 364.042 119.404 364.168 119.34 364.313C119.276 364.455 119.244 364.61 119.244 364.778C119.244 364.91 119.267 365.034 119.313 365.147C119.363 365.257 119.433 365.35 119.524 365.428C119.616 365.501 119.727 365.56 119.859 365.605C119.996 365.646 120.153 365.667 120.331 365.667ZM131.031 364.97C131.031 364.856 131.004 364.756 130.949 364.669C130.899 364.582 130.808 364.5 130.676 364.423C130.539 364.35 130.359 364.282 130.136 364.218C129.912 364.154 129.63 364.09 129.288 364.026C128.855 363.94 128.459 363.833 128.099 363.705C127.743 363.573 127.438 363.413 127.183 363.227C126.927 363.044 126.727 362.832 126.581 362.591C126.44 362.349 126.369 362.071 126.369 361.757C126.369 361.451 126.442 361.16 126.588 360.882C126.734 360.604 126.943 360.36 127.217 360.15C127.49 359.941 127.823 359.774 128.215 359.651C128.607 359.528 129.049 359.467 129.541 359.467C130.056 359.467 130.519 359.528 130.929 359.651C131.339 359.77 131.688 359.934 131.975 360.144C132.257 360.358 132.474 360.611 132.624 360.902C132.774 361.194 132.85 361.511 132.85 361.853H130.949C130.949 361.729 130.929 361.616 130.888 361.511C130.847 361.401 130.785 361.303 130.703 361.217C130.589 361.103 130.434 361.012 130.238 360.943C130.047 360.875 129.814 360.841 129.541 360.841C129.309 360.841 129.106 360.864 128.933 360.909C128.759 360.955 128.618 361.019 128.509 361.101C128.409 361.174 128.331 361.26 128.276 361.36C128.226 361.456 128.201 361.559 128.201 361.668C128.201 361.777 128.224 361.88 128.27 361.976C128.315 362.067 128.397 362.149 128.516 362.222C128.63 362.299 128.787 362.37 128.987 362.434C129.188 362.493 129.443 362.545 129.753 362.591C130.2 362.664 130.614 362.757 130.997 362.871C131.38 362.985 131.71 363.131 131.988 363.309C132.266 363.491 132.483 363.712 132.638 363.972C132.797 364.227 132.877 364.532 132.877 364.888C132.877 365.216 132.797 365.519 132.638 365.797C132.483 366.07 132.262 366.307 131.975 366.508C131.683 366.708 131.332 366.866 130.922 366.979C130.512 367.089 130.054 367.144 129.548 367.144C128.992 367.144 128.5 367.071 128.071 366.925C127.647 366.779 127.292 366.588 127.005 366.351C126.718 366.118 126.499 365.854 126.349 365.558C126.203 365.257 126.13 364.956 126.13 364.655H127.941C127.955 364.856 128.01 365.029 128.105 365.175C128.201 365.316 128.324 365.43 128.475 365.517C128.625 365.608 128.796 365.674 128.987 365.715C129.183 365.756 129.384 365.776 129.589 365.776C129.835 365.776 130.049 365.756 130.231 365.715C130.418 365.669 130.571 365.61 130.689 365.537C130.803 365.464 130.888 365.38 130.942 365.284C131.002 365.188 131.031 365.084 131.031 364.97ZM138.484 357.792V359.604H141.246V361.005H138.484V364.184C138.484 364.452 138.514 364.678 138.573 364.86C138.637 365.038 138.726 365.179 138.84 365.284C138.954 365.394 139.09 365.471 139.25 365.517C139.414 365.562 139.596 365.585 139.797 365.585C139.943 365.585 140.091 365.578 140.241 365.564C140.396 365.551 140.544 365.533 140.685 365.51C140.822 365.492 140.95 365.471 141.068 365.448C141.191 365.425 141.296 365.403 141.383 365.38L141.567 366.686C141.435 366.763 141.28 366.831 141.102 366.891C140.925 366.945 140.736 366.991 140.535 367.027C140.335 367.064 140.125 367.091 139.906 367.109C139.692 367.132 139.48 367.144 139.27 367.144C138.865 367.144 138.496 367.091 138.163 366.986C137.835 366.877 137.555 366.708 137.322 366.48C137.085 366.257 136.903 365.972 136.775 365.626C136.648 365.275 136.584 364.856 136.584 364.368V361.005H134.895V359.604H136.584V357.792H138.484ZM149.048 359.467C149.335 359.467 149.599 359.487 149.841 359.528C150.087 359.565 150.285 359.606 150.435 359.651L150.155 361.545C149.904 361.486 149.647 361.442 149.383 361.415C149.123 361.383 148.875 361.367 148.638 361.367C148.391 361.367 148.168 361.39 147.968 361.436C147.772 361.477 147.596 361.54 147.441 361.627C147.254 361.727 147.095 361.855 146.963 362.01C146.831 362.165 146.721 362.347 146.635 362.557V367H144.734V359.604H146.505L146.58 360.649L146.594 360.813C146.894 360.394 147.254 360.066 147.674 359.829C148.093 359.588 148.551 359.467 149.048 359.467ZM157.095 367C157.05 366.909 157.011 366.804 156.979 366.686C156.947 366.567 156.92 366.442 156.897 366.31C156.792 366.424 156.672 366.531 156.535 366.631C156.398 366.731 156.248 366.818 156.084 366.891C155.915 366.968 155.731 367.027 155.53 367.068C155.33 367.114 155.113 367.137 154.881 367.137C154.502 367.137 154.154 367.082 153.835 366.973C153.52 366.863 153.249 366.711 153.021 366.515C152.793 366.319 152.616 366.086 152.488 365.817C152.36 365.544 152.297 365.248 152.297 364.929C152.297 364.519 152.376 364.156 152.536 363.842C152.695 363.523 152.935 363.261 153.254 363.056C153.541 362.869 153.894 362.728 154.313 362.632C154.737 362.532 155.222 362.481 155.769 362.481H156.829V362.044C156.829 361.871 156.802 361.716 156.747 361.579C156.692 361.438 156.61 361.317 156.501 361.217C156.387 361.112 156.243 361.032 156.07 360.978C155.901 360.918 155.703 360.889 155.475 360.889C155.275 360.889 155.102 360.914 154.956 360.964C154.81 361.009 154.691 361.076 154.6 361.162C154.518 361.24 154.457 361.333 154.416 361.442C154.379 361.552 154.361 361.673 154.361 361.805H152.461C152.461 361.49 152.529 361.192 152.666 360.909C152.807 360.627 153.012 360.378 153.281 360.164C153.545 359.95 153.869 359.781 154.252 359.658C154.639 359.531 155.081 359.467 155.578 359.467C156.025 359.467 156.439 359.521 156.822 359.631C157.209 359.74 157.544 359.902 157.827 360.116C158.109 360.33 158.33 360.602 158.49 360.93C158.65 361.253 158.729 361.629 158.729 362.058V365.229C158.729 365.626 158.754 365.954 158.804 366.214C158.855 366.474 158.928 366.697 159.023 366.884V367H157.095ZM155.284 365.667C155.475 365.667 155.653 365.644 155.817 365.599C155.981 365.553 156.129 365.494 156.261 365.421C156.394 365.348 156.508 365.266 156.603 365.175C156.699 365.079 156.774 364.983 156.829 364.888V363.616H155.858C155.562 363.616 155.309 363.646 155.099 363.705C154.89 363.76 154.719 363.837 154.587 363.938C154.455 364.042 154.357 364.168 154.293 364.313C154.229 364.455 154.197 364.61 154.197 364.778C154.197 364.91 154.22 365.034 154.265 365.147C154.316 365.257 154.386 365.35 154.477 365.428C154.568 365.501 154.68 365.56 154.812 365.605C154.949 365.646 155.106 365.667 155.284 365.667ZM166.524 359.467C166.811 359.467 167.076 359.487 167.317 359.528C167.563 359.565 167.761 359.606 167.912 359.651L167.632 361.545C167.381 361.486 167.123 361.442 166.859 361.415C166.599 361.383 166.351 361.367 166.114 361.367C165.868 361.367 165.645 361.39 165.444 361.436C165.248 361.477 165.073 361.54 164.918 361.627C164.731 361.727 164.571 361.855 164.439 362.01C164.307 362.165 164.198 362.347 164.111 362.557V367H162.211V359.604H163.981L164.056 360.649L164.07 360.813C164.371 360.394 164.731 360.066 165.15 359.829C165.569 359.588 166.027 359.467 166.524 359.467Z" fill="white"/>
<g opacity="0.4">
<mask id="mask0_0_1" style="mask-type:alpha" maskUnits="userSpaceOnUse" x="218" y="139" width="13" height="8">
<path d="M228.885 139.295L224.295 143.875L219.705 139.295L218.295 140.705L224.295 146.705L230.295 140.705L228.885 139.295Z" fill="#5F5F5F"/>
</mask>
<g mask="url(#mask0_0_1)">
<rect x="232" y="136" width="13.3333" height="15" transform="rotate(90 232 136)" fill="#5F5F5F"/>
</g>
</g>
<g opacity="0.4">
<mask id="mask1_0_1" style="mask-type:alpha" maskUnits="userSpaceOnUse" x="218" y="226" width="13" height="8">
<path d="M228.885 226.295L224.295 230.875L219.705 226.295L218.295 227.705L224.295 233.705L230.295 227.705L228.885 226.295Z" fill="#5F5F5F"/>
</mask>
<g mask="url(#mask1_0_1)">
<rect x="232" y="223" width="13.3333" height="15" transform="rotate(90 232 223)" fill="#5F5F5F"/>
</g>
</g>
<path d="M25.7835 114H24.6995V106.852L22.4671 107.701V106.711L25.6956 105.469H25.7835V114ZM42.6974 105.469L42.7091 111.246C42.7091 111.645 42.6388 112.018 42.4982 112.365C42.3576 112.713 42.1642 113.016 41.9181 113.273C41.672 113.535 41.3791 113.742 41.0392 113.895C40.6994 114.043 40.3263 114.117 39.9201 114.117C39.506 114.117 39.1291 114.043 38.7892 113.895C38.4494 113.746 38.1584 113.541 37.9162 113.279C37.674 113.021 37.4845 112.719 37.3478 112.371C37.2111 112.02 37.1408 111.645 37.1369 111.246L37.1486 105.469H38.1798L38.2033 111.246C38.2072 111.5 38.2463 111.744 38.3205 111.979C38.3986 112.213 38.5099 112.42 38.6545 112.6C38.7951 112.779 38.9709 112.924 39.1818 113.033C39.3966 113.143 39.6427 113.197 39.9201 113.197C40.1974 113.197 40.4416 113.145 40.6525 113.039C40.8634 112.93 41.0412 112.783 41.1857 112.6C41.3263 112.42 41.4338 112.213 41.508 111.979C41.5822 111.744 41.6232 111.5 41.631 111.246L41.6486 105.469H42.6974ZM49.0919 112.318C49.0919 112.189 49.0665 112.074 49.0157 111.973C48.9649 111.867 48.879 111.771 48.7579 111.686C48.6368 111.6 48.4766 111.521 48.2774 111.451C48.0782 111.377 47.8302 111.311 47.5333 111.252C47.17 111.178 46.838 111.088 46.5372 110.982C46.2403 110.877 45.9864 110.75 45.7755 110.602C45.5606 110.457 45.3946 110.287 45.2774 110.092C45.1602 109.893 45.1016 109.662 45.1016 109.4C45.1016 109.143 45.1622 108.902 45.2833 108.68C45.4044 108.453 45.5743 108.256 45.793 108.088C46.0118 107.92 46.2716 107.787 46.5723 107.689C46.877 107.592 47.211 107.543 47.5743 107.543C47.9649 107.543 48.3165 107.594 48.629 107.695C48.9415 107.797 49.2071 107.938 49.4259 108.117C49.6446 108.297 49.8126 108.508 49.9298 108.75C50.0509 108.988 50.1114 109.246 50.1114 109.523H49.0274C49.0274 109.387 48.9923 109.254 48.922 109.125C48.8516 108.992 48.754 108.875 48.629 108.773C48.504 108.672 48.3516 108.59 48.172 108.527C47.9962 108.465 47.797 108.434 47.5743 108.434C47.3438 108.434 47.1407 108.459 46.9649 108.51C46.793 108.561 46.6505 108.629 46.5372 108.715C46.42 108.801 46.3321 108.9 46.2735 109.014C46.2149 109.127 46.1856 109.244 46.1856 109.365C46.1856 109.49 46.2091 109.602 46.2559 109.699C46.3028 109.797 46.3848 109.885 46.502 109.963C46.6153 110.041 46.7677 110.111 46.9591 110.174C47.1544 110.236 47.4005 110.297 47.6973 110.355C48.088 110.438 48.4376 110.533 48.7462 110.643C49.0548 110.748 49.3145 110.875 49.5255 111.023C49.7364 111.176 49.8966 111.352 50.0059 111.551C50.1192 111.75 50.1759 111.98 50.1759 112.242C50.1759 112.523 50.1114 112.779 49.9825 113.01C49.8575 113.24 49.6817 113.438 49.4552 113.602C49.2286 113.766 48.9571 113.893 48.6407 113.982C48.3243 114.072 47.9786 114.117 47.6036 114.117C47.1739 114.117 46.7911 114.061 46.4552 113.947C46.1192 113.83 45.836 113.676 45.6055 113.484C45.3712 113.297 45.1915 113.078 45.0665 112.828C44.9454 112.578 44.8848 112.318 44.8848 112.049H45.9688C45.9845 112.271 46.043 112.459 46.1446 112.611C46.2501 112.764 46.3809 112.887 46.5372 112.98C46.6895 113.074 46.8595 113.141 47.047 113.18C47.2345 113.219 47.42 113.238 47.6036 113.238C47.8927 113.238 48.1446 113.205 48.3595 113.139C48.5743 113.068 48.7423 112.973 48.8634 112.852C48.9376 112.777 48.9942 112.695 49.0333 112.605C49.0723 112.516 49.0919 112.42 49.0919 112.318ZM56.5938 114L56.5293 113.127C56.3184 113.439 56.0547 113.684 55.7383 113.859C55.4219 114.031 55.0566 114.117 54.6426 114.117C54.3105 114.117 54.0098 114.066 53.7402 113.965C53.4707 113.859 53.2402 113.697 53.0488 113.479C52.8574 113.26 52.709 112.982 52.6035 112.646C52.502 112.307 52.4512 111.9 52.4512 111.428V107.66H53.5352V111.439C53.5352 111.783 53.5625 112.068 53.6172 112.295C53.6719 112.521 53.7539 112.701 53.8633 112.834C53.9727 112.971 54.1055 113.066 54.2617 113.121C54.4219 113.176 54.6055 113.203 54.8125 113.203C55.0547 113.203 55.2715 113.176 55.4629 113.121C55.6543 113.062 55.8203 112.982 55.9609 112.881C56.0781 112.799 56.1797 112.701 56.2656 112.588C56.3555 112.471 56.4297 112.344 56.4883 112.207V107.66H57.5781V114H56.5938ZM64.1191 114C64.0761 113.918 64.0409 113.816 64.0136 113.695C63.9902 113.57 63.9726 113.441 63.9609 113.309C63.8515 113.418 63.7284 113.521 63.5917 113.619C63.4589 113.717 63.3124 113.803 63.1523 113.877C62.9882 113.951 62.8144 114.01 62.6308 114.053C62.4472 114.096 62.2519 114.117 62.0448 114.117C61.7089 114.117 61.4042 114.068 61.1308 113.971C60.8613 113.873 60.6327 113.74 60.4452 113.572C60.2538 113.408 60.1054 113.213 59.9999 112.986C59.8984 112.756 59.8476 112.508 59.8476 112.242C59.8476 111.895 59.9159 111.59 60.0527 111.328C60.1933 111.066 60.3905 110.848 60.6445 110.672C60.8984 110.5 61.203 110.371 61.5585 110.285C61.9179 110.199 62.3183 110.156 62.7597 110.156H63.9433V109.658C63.9433 109.467 63.9081 109.295 63.8378 109.143C63.7675 108.99 63.6679 108.859 63.539 108.75C63.4101 108.645 63.2519 108.562 63.0644 108.504C62.8808 108.445 62.6738 108.416 62.4433 108.416C62.2284 108.416 62.0351 108.443 61.8632 108.498C61.6952 108.553 61.5527 108.625 61.4355 108.715C61.3183 108.805 61.2265 108.912 61.1601 109.037C61.0976 109.158 61.0663 109.285 61.0663 109.418H59.9765C59.9804 109.188 60.039 108.961 60.1523 108.738C60.2695 108.516 60.4374 108.314 60.6562 108.135C60.871 107.959 61.1327 107.816 61.4413 107.707C61.7538 107.598 62.1073 107.543 62.5019 107.543C62.8613 107.543 63.1952 107.588 63.5038 107.678C63.8124 107.764 64.08 107.895 64.3066 108.07C64.5292 108.25 64.705 108.473 64.8339 108.738C64.9628 109.004 65.0273 109.314 65.0273 109.67V112.617C65.0273 112.828 65.0468 113.053 65.0859 113.291C65.1249 113.525 65.1796 113.73 65.2499 113.906V114H64.1191ZM62.203 113.174C62.414 113.174 62.6113 113.146 62.7948 113.092C62.9784 113.037 63.1464 112.965 63.2988 112.875C63.4472 112.785 63.5761 112.684 63.6855 112.57C63.7948 112.453 63.8808 112.332 63.9433 112.207V110.924H62.9355C62.5605 110.924 62.2323 110.957 61.9511 111.023C61.6738 111.086 61.453 111.184 61.289 111.316C61.1718 111.41 61.082 111.521 61.0195 111.65C60.9609 111.779 60.9316 111.926 60.9316 112.09C60.9316 112.246 60.957 112.391 61.0077 112.523C61.0624 112.656 61.1425 112.77 61.248 112.863C61.3534 112.961 61.4863 113.037 61.6464 113.092C61.8066 113.146 61.9921 113.174 62.203 113.174ZM63.1698 105.199H64.4823L62.912 106.758H62.0917L63.1698 105.199ZM71.6444 107.543C71.8436 107.543 72.0506 107.557 72.2655 107.584C72.4842 107.611 72.6483 107.648 72.7577 107.695L72.6112 108.756C72.4002 108.709 72.1991 108.676 72.0077 108.656C71.8202 108.633 71.6229 108.621 71.4159 108.621C71.1502 108.621 70.91 108.654 70.6952 108.721C70.4803 108.783 70.2928 108.877 70.1327 109.002C69.9881 109.111 69.8612 109.246 69.7518 109.406C69.6463 109.562 69.5584 109.738 69.4881 109.934V114H68.3983V107.66H69.4295L69.4764 108.51L69.4823 108.668C69.7401 108.32 70.0487 108.047 70.408 107.848C70.7713 107.645 71.1834 107.543 71.6444 107.543ZM75.197 107.66H78.4373V113.062H80.5056V114H75.197V113.062H77.3533V108.604H75.197V107.66ZM77.2127 105.996C77.2127 105.902 77.2263 105.814 77.2537 105.732C77.2849 105.65 77.3318 105.58 77.3943 105.521C77.4451 105.471 77.5095 105.432 77.5877 105.404C77.6697 105.373 77.7615 105.357 77.863 105.357C77.9646 105.357 78.0545 105.373 78.1326 105.404C78.2107 105.432 78.2752 105.471 78.3259 105.521C78.3884 105.576 78.4353 105.645 78.4666 105.727C78.4978 105.809 78.5134 105.898 78.5134 105.996C78.5134 106.172 78.4588 106.318 78.3494 106.436C78.24 106.553 78.0779 106.611 77.863 106.611C77.6443 106.611 77.4802 106.553 77.3709 106.436C77.2654 106.318 77.2127 106.172 77.2127 105.996ZM82.2595 110.771C82.2595 110.314 82.3259 109.891 82.4587 109.5C82.5915 109.105 82.7829 108.764 83.0329 108.475C83.279 108.186 83.5798 107.959 83.9352 107.795C84.2907 107.627 84.6911 107.543 85.1364 107.543C85.5856 107.543 85.988 107.627 86.3434 107.795C86.7028 107.959 87.0075 108.186 87.2575 108.475C87.5036 108.764 87.693 109.105 87.8259 109.5C87.9587 109.891 88.0251 110.314 88.0251 110.771V110.9C88.0251 111.357 87.9587 111.781 87.8259 112.172C87.693 112.562 87.5036 112.902 87.2575 113.191C87.0075 113.48 86.7048 113.707 86.3493 113.871C85.9938 114.035 85.5934 114.117 85.1481 114.117C84.6989 114.117 84.2946 114.035 83.9352 113.871C83.5798 113.707 83.279 113.48 83.0329 113.191C82.7829 112.902 82.5915 112.562 82.4587 112.172C82.3259 111.781 82.2595 111.357 82.2595 110.9V110.771ZM83.3434 110.9C83.3434 111.213 83.3805 111.512 83.4548 111.797C83.529 112.078 83.6423 112.326 83.7946 112.541C83.943 112.756 84.1305 112.926 84.3571 113.051C84.5837 113.176 84.8473 113.238 85.1481 113.238C85.445 113.238 85.7048 113.176 85.9274 113.051C86.154 112.926 86.3434 112.756 86.4958 112.541C86.6442 112.326 86.7555 112.078 86.8298 111.797C86.904 111.512 86.9411 111.213 86.9411 110.9V110.771C86.9411 110.463 86.902 110.168 86.8239 109.887C86.7497 109.602 86.6384 109.352 86.4899 109.137C86.3376 108.922 86.1481 108.752 85.9216 108.627C85.6989 108.498 85.4372 108.434 85.1364 108.434C84.8356 108.434 84.5739 108.498 84.3512 108.627C84.1286 108.752 83.943 108.922 83.7946 109.137C83.6423 109.352 83.529 109.602 83.4548 109.887C83.3805 110.168 83.3434 110.463 83.3434 110.771V110.9Z" fill="#8790A3"/>
<defs>
<filter id="filter0_d_0_1" x="0" y="0" width="250" height="399" filterUnits="userSpaceOnUse" color-interpolation-filters="sRGB">
<feFlood flood-opacity="0" result="BackgroundImageFix"/>
<feColorMatrix in="SourceAlpha" type="matrix" values="0 0 0 0 0 0 0 0 0 0 0 0 0 0 0 0 0 0 127 0" result="hardAlpha"/>
<feOffset dy="1"/>
<feGaussianBlur stdDeviation="2.5"/>
<feColorMatrix type="matrix" values="0 0 0 0 0.105882 0 0 0 0 0.141176 0 0 0 0 0.184314 0 0 0 0.1 0"/>
<feBlend mode="normal" in2="BackgroundImageFix" result="effect1_dropShadow_0_1"/>
<feBlend mode="normal" in="SourceGraphic" in2="effect1_dropShadow_0_1" result="shape"/>
</filter>
<filter id="filter1_dd_0_1" x="7" y="124" width="237" height="44" filterUnits="userSpaceOnUse" color-interpolation-filters="sRGB">
<feFlood flood-opacity="0" result="BackgroundImageFix"/>
<feColorMatrix in="SourceAlpha" type="matrix" values="0 0 0 0 0 0 0 0 0 0 0 0 0 0 0 0 0 0 127 0" result="hardAlpha"/>
<feOffset dy="4"/>
<feGaussianBlur stdDeviation="3"/>
<feColorMatrix type="matrix" values="0 0 0 0 0.14902 0 0 0 0 0.196078 0 0 0 0 0.219608 0 0 0 0.08 0"/>
<feBlend mode="multiply" in2="BackgroundImageFix" result="effect1_dropShadow_0_1"/>
<feColorMatrix in="SourceAlpha" type="matrix" values="0 0 0 0 0 0 0 0 0 0 0 0 0 0 0 0 0 0 127 0" result="hardAlpha"/>
<feOffset dy="2"/>
<feGaussianBlur stdDeviation="2"/>
<feColorMatrix type="matrix" values="0 0 0 0 0.14902 0 0 0 0 0.196078 0 0 0 0 0.219608 0 0 0 0.08 0"/>
<feBlend mode="multiply" in2="effect1_dropShadow_0_1" result="effect2_dropShadow_0_1"/>
<feBlend mode="normal" in="SourceGraphic" in2="effect2_dropShadow_0_1" result="shape"/>
</filter>
</defs>
</svg>
