<svg width="250" height="399" viewBox="0 0 250 399" fill="none" xmlns="http://www.w3.org/2000/svg">
<g filter="url(#filter0_d_0_1)">
<path d="M5 390.87C5 392.047 5.95344 393 7.12956 393H242.161C243.729 393 245 391.729 245 390.161V29C245 15.1929 233.807 4 220 4H30C16.1929 4 5 15.1929 5 29V390.87Z" fill="white"/>
<path d="M5.5 390.87C5.5 391.77 6.22958 392.5 7.12956 392.5H242.161C243.453 392.5 244.5 391.453 244.5 390.161V29C244.5 15.4691 233.531 4.5 220 4.5H30C16.469 4.5 5.5 15.469 5.5 29V390.87Z" stroke="#EBE9E9"/>
</g>
<path d="M89.4068 77.5H242.966C243.813 77.5 244.5 76.8133 244.5 75.9661V29C244.5 15.469 233.531 4.5 220 4.5H30C16.469 4.5 5.5 15.469 5.5 29V75.9661C5.5 76.8133 6.18675 77.5 7.0339 77.5H89.4068Z" stroke="#EBE9E9"/>
<path d="M84.6659 41.6602C84.6317 42.1973 84.5145 42.6807 84.3144 43.1104C84.119 43.54 83.8554 43.9062 83.5233 44.209C83.1913 44.5117 82.7958 44.7461 82.3368 44.9121C81.8778 45.0732 81.37 45.1538 80.8134 45.1538C80.3739 45.1538 79.9662 45.0977 79.5902 44.9854C79.2191 44.8682 78.8847 44.7021 78.5868 44.4873C78.3134 44.2871 78.0692 44.0454 77.8544 43.7622C77.6444 43.479 77.4662 43.1665 77.3197 42.8247C77.1781 42.4829 77.0683 42.1069 76.9901 41.6968C76.9169 41.2866 76.8803 40.8521 76.8803 40.3931V38.9575C76.8803 38.5278 76.9145 38.1201 76.9828 37.7344C77.0512 37.3438 77.1537 36.9824 77.2904 36.6504C77.4467 36.2451 77.6518 35.8838 77.9057 35.5664C78.1596 35.249 78.4477 34.9805 78.7699 34.7607C79.058 34.5752 79.3729 34.4336 79.7147 34.3359C80.0614 34.2334 80.4325 34.1821 80.828 34.1821C81.414 34.1821 81.934 34.2651 82.3881 34.4312C82.8471 34.5972 83.2377 34.834 83.56 35.1416C83.8822 35.4492 84.1361 35.8252 84.3217 36.2695C84.5072 36.7139 84.6244 37.2144 84.6732 37.771H82.6225C82.6029 37.4536 82.5541 37.1753 82.476 36.936C82.4027 36.6968 82.2953 36.4966 82.1537 36.3354C82.0072 36.1792 81.8241 36.062 81.6044 35.9839C81.3895 35.9009 81.1308 35.8594 80.828 35.8594C80.6669 35.8594 80.5155 35.8765 80.3739 35.9106C80.2372 35.9448 80.1103 35.9961 79.9931 36.0645C79.7929 36.1816 79.622 36.3501 79.4804 36.5698C79.3437 36.7847 79.2338 37.0361 79.1508 37.3242C79.0873 37.5488 79.0409 37.7979 79.0116 38.0713C78.9823 38.3398 78.9677 38.6304 78.9677 38.9429V40.3931C78.9677 40.8179 78.9896 41.1987 79.0336 41.5356C79.0824 41.8677 79.1557 42.1582 79.2533 42.4072C79.3217 42.5781 79.4022 42.7295 79.495 42.8613C79.5927 42.9932 79.7025 43.103 79.8246 43.1909C79.9564 43.2886 80.1029 43.3618 80.2641 43.4106C80.4301 43.4546 80.6132 43.4766 80.8134 43.4766C81.0819 43.4766 81.3236 43.4424 81.5385 43.374C81.7533 43.3057 81.9364 43.1982 82.0878 43.0518C82.2392 42.9053 82.3588 42.7173 82.4467 42.4878C82.5346 42.2583 82.5883 41.9824 82.6078 41.6602H84.6659ZM86.3948 40.9644C86.3948 40.3882 86.4778 39.856 86.6439 39.3677C86.8099 38.8745 87.054 38.4473 87.3763 38.0859C87.6937 37.7246 88.0819 37.4414 88.5408 37.2363C89.0047 37.0312 89.5345 36.9287 90.1302 36.9287C90.7259 36.9287 91.2557 37.0312 91.7195 37.2363C92.1834 37.4414 92.5765 37.7246 92.8987 38.0859C93.2161 38.4473 93.4578 38.8745 93.6238 39.3677C93.7899 39.856 93.8729 40.3882 93.8729 40.9644V41.1182C93.8729 41.6992 93.7899 42.2363 93.6238 42.7295C93.4578 43.2178 93.2161 43.6426 92.8987 44.0039C92.5814 44.3652 92.1907 44.6484 91.7269 44.8535C91.263 45.0537 90.7357 45.1538 90.1448 45.1538C89.5491 45.1538 89.0169 45.0537 88.5482 44.8535C88.0843 44.6484 87.6937 44.3652 87.3763 44.0039C87.054 43.6426 86.8099 43.2178 86.6439 42.7295C86.4778 42.2363 86.3948 41.6992 86.3948 41.1182V40.9644ZM88.431 41.1182C88.431 41.4502 88.4627 41.7627 88.5262 42.0557C88.5897 42.3438 88.6898 42.5952 88.8265 42.8101C88.9632 43.0298 89.139 43.2031 89.3538 43.3301C89.5736 43.457 89.8372 43.5205 90.1448 43.5205C90.4427 43.5205 90.699 43.457 90.9139 43.3301C91.1287 43.2031 91.3045 43.0298 91.4412 42.8101C91.5731 42.5952 91.6707 42.3438 91.7342 42.0557C91.7977 41.7627 91.8294 41.4502 91.8294 41.1182V40.9644C91.8294 40.6421 91.7977 40.3369 91.7342 40.0488C91.6707 39.7607 91.5731 39.5068 91.4412 39.2871C91.3045 39.0674 91.1287 38.894 90.9139 38.7671C90.699 38.6401 90.4378 38.5767 90.1302 38.5767C89.8275 38.5767 89.5687 38.6401 89.3538 38.7671C89.139 38.894 88.9632 39.0674 88.8265 39.2871C88.6898 39.5068 88.5897 39.7607 88.5262 40.0488C88.4627 40.3369 88.431 40.6421 88.431 40.9644V41.1182ZM101.703 36.9287C102.01 36.9287 102.294 36.9507 102.552 36.9946C102.816 37.0337 103.029 37.0776 103.19 37.1265L102.889 39.1553C102.621 39.0918 102.345 39.0454 102.062 39.0161C101.783 38.9819 101.517 38.9648 101.263 38.9648C101 38.9648 100.76 38.9893 100.546 39.0381C100.336 39.082 100.148 39.1504 99.9817 39.2432C99.7815 39.3506 99.6106 39.4873 99.469 39.6533C99.3274 39.8193 99.2102 40.0146 99.1174 40.2393V45H97.0813V37.0752H98.9783L99.0588 38.1958L99.0735 38.3716C99.3957 37.9224 99.7815 37.5708 100.231 37.3169C100.68 37.0581 101.171 36.9287 101.703 36.9287ZM105.38 48.0469V37.0752H107.262L107.336 37.8516C107.443 37.7197 107.56 37.6025 107.687 37.5C107.814 37.3926 107.951 37.2998 108.097 37.2217C108.273 37.1289 108.466 37.0581 108.676 37.0093C108.891 36.9556 109.12 36.9287 109.364 36.9287C109.867 36.9287 110.312 37.0264 110.697 37.2217C111.083 37.4121 111.408 37.6831 111.672 38.0347C111.935 38.3911 112.133 38.8184 112.265 39.3164C112.402 39.8096 112.47 40.3564 112.47 40.957V41.1108C112.47 41.687 112.402 42.2217 112.265 42.7148C112.133 43.208 111.938 43.6328 111.679 43.9893C111.415 44.3506 111.09 44.6338 110.705 44.8389C110.319 45.0439 109.877 45.1465 109.379 45.1465C109.115 45.1465 108.871 45.1172 108.647 45.0586C108.427 45.0049 108.222 44.9243 108.031 44.8169C107.919 44.7485 107.812 44.6729 107.709 44.5898C107.607 44.5068 107.509 44.4141 107.416 44.3115V48.0469H105.38ZM110.434 40.957C110.434 40.625 110.402 40.3149 110.339 40.0269C110.28 39.7339 110.187 39.48 110.06 39.2651C109.928 39.0552 109.76 38.8892 109.555 38.7671C109.355 38.645 109.111 38.584 108.822 38.584C108.656 38.584 108.505 38.6011 108.368 38.6353C108.232 38.6646 108.107 38.7085 107.995 38.7671C107.868 38.8354 107.756 38.9209 107.658 39.0234C107.565 39.126 107.485 39.2456 107.416 39.3823V42.6929C107.48 42.8198 107.555 42.9346 107.643 43.0371C107.736 43.1396 107.841 43.2275 107.958 43.3008C108.07 43.3691 108.2 43.4229 108.346 43.4619C108.493 43.4961 108.656 43.5132 108.837 43.5132C109.125 43.5132 109.369 43.4497 109.569 43.3228C109.775 43.1958 109.941 43.0225 110.068 42.8027C110.194 42.583 110.287 42.3291 110.346 42.041C110.404 41.748 110.434 41.438 110.434 41.1108V40.957ZM114.411 40.9644C114.411 40.3882 114.494 39.856 114.66 39.3677C114.826 38.8745 115.07 38.4473 115.393 38.0859C115.71 37.7246 116.098 37.4414 116.557 37.2363C117.021 37.0312 117.551 36.9287 118.147 36.9287C118.742 36.9287 119.272 37.0312 119.736 37.2363C120.2 37.4414 120.593 37.7246 120.915 38.0859C121.232 38.4473 121.474 38.8745 121.64 39.3677C121.806 39.856 121.889 40.3882 121.889 40.9644V41.1182C121.889 41.6992 121.806 42.2363 121.64 42.7295C121.474 43.2178 121.232 43.6426 120.915 44.0039C120.598 44.3652 120.207 44.6484 119.743 44.8535C119.279 45.0537 118.752 45.1538 118.161 45.1538C117.566 45.1538 117.033 45.0537 116.565 44.8535C116.101 44.6484 115.71 44.3652 115.393 44.0039C115.07 43.6426 114.826 43.2178 114.66 42.7295C114.494 42.2363 114.411 41.6992 114.411 41.1182V40.9644ZM116.447 41.1182C116.447 41.4502 116.479 41.7627 116.543 42.0557C116.606 42.3438 116.706 42.5952 116.843 42.8101C116.98 43.0298 117.155 43.2031 117.37 43.3301C117.59 43.457 117.854 43.5205 118.161 43.5205C118.459 43.5205 118.715 43.457 118.93 43.3301C119.145 43.2031 119.321 43.0298 119.458 42.8101C119.589 42.5952 119.687 42.3438 119.751 42.0557C119.814 41.7627 119.846 41.4502 119.846 41.1182V40.9644C119.846 40.6421 119.814 40.3369 119.751 40.0488C119.687 39.7607 119.589 39.5068 119.458 39.2871C119.321 39.0674 119.145 38.894 118.93 38.7671C118.715 38.6401 118.454 38.5767 118.147 38.5767C117.844 38.5767 117.585 38.6401 117.37 38.7671C117.155 38.894 116.98 39.0674 116.843 39.2871C116.706 39.5068 116.606 39.7607 116.543 40.0488C116.479 40.3369 116.447 40.6421 116.447 40.9644V41.1182ZM129.719 36.9287C130.027 36.9287 130.31 36.9507 130.569 36.9946C130.833 37.0337 131.045 37.0776 131.206 37.1265L130.906 39.1553C130.637 39.0918 130.361 39.0454 130.078 39.0161C129.8 38.9819 129.534 38.9648 129.28 38.9648C129.016 38.9648 128.777 38.9893 128.562 39.0381C128.352 39.082 128.164 39.1504 127.998 39.2432C127.798 39.3506 127.627 39.4873 127.485 39.6533C127.344 39.8193 127.227 40.0146 127.134 40.2393V45H125.098V37.0752H126.995L127.075 38.1958L127.09 38.3716C127.412 37.9224 127.798 37.5708 128.247 37.3169C128.696 37.0581 129.187 36.9287 129.719 36.9287ZM138.318 45C138.269 44.9023 138.228 44.79 138.194 44.6631C138.16 44.5361 138.13 44.4019 138.106 44.2603C137.994 44.3823 137.864 44.4971 137.718 44.6045C137.571 44.7119 137.41 44.8047 137.234 44.8828C137.054 44.9658 136.856 45.0293 136.641 45.0732C136.426 45.1221 136.194 45.1465 135.945 45.1465C135.54 45.1465 135.166 45.0879 134.825 44.9707C134.488 44.8535 134.197 44.6899 133.953 44.48C133.709 44.27 133.518 44.021 133.382 43.7329C133.245 43.4399 133.177 43.1226 133.177 42.7808C133.177 42.3413 133.262 41.9531 133.433 41.6162C133.604 41.2744 133.86 40.9937 134.202 40.7739C134.51 40.5737 134.888 40.4224 135.337 40.3198C135.791 40.2124 136.311 40.1587 136.897 40.1587H138.033V39.6899C138.033 39.5044 138.003 39.3384 137.945 39.1919C137.886 39.0405 137.798 38.9111 137.681 38.8037C137.559 38.6914 137.405 38.606 137.22 38.5474C137.039 38.4839 136.827 38.4521 136.582 38.4521C136.368 38.4521 136.182 38.479 136.026 38.5327C135.87 38.5815 135.743 38.6523 135.645 38.7451C135.557 38.8281 135.491 38.9282 135.447 39.0454C135.408 39.1626 135.389 39.292 135.389 39.4336H133.352C133.352 39.0967 133.426 38.7769 133.572 38.4741C133.724 38.1714 133.943 37.9053 134.231 37.6758C134.515 37.4463 134.861 37.2656 135.271 37.1338C135.686 36.9971 136.16 36.9287 136.692 36.9287C137.171 36.9287 137.615 36.9873 138.025 37.1045C138.44 37.2217 138.799 37.395 139.102 37.6245C139.405 37.854 139.642 38.1445 139.812 38.4961C139.983 38.8428 140.069 39.2456 140.069 39.7046V43.103C140.069 43.5278 140.096 43.8794 140.149 44.1577C140.203 44.436 140.281 44.6753 140.384 44.8755V45H138.318ZM136.377 43.5718C136.582 43.5718 136.773 43.5474 136.949 43.4985C137.124 43.4497 137.283 43.3862 137.425 43.3081C137.566 43.23 137.688 43.1421 137.791 43.0444C137.893 42.9419 137.974 42.8394 138.033 42.7368V41.3745H136.993C136.675 41.3745 136.404 41.4062 136.18 41.4697C135.955 41.5283 135.772 41.6113 135.63 41.7188C135.489 41.8311 135.384 41.9653 135.315 42.1216C135.247 42.2729 135.213 42.439 135.213 42.6196C135.213 42.7612 135.237 42.8931 135.286 43.0151C135.34 43.1323 135.415 43.2324 135.513 43.3154C135.611 43.3936 135.73 43.457 135.872 43.5059C136.018 43.5498 136.187 43.5718 136.377 43.5718ZM146.441 35.1343V37.0752H149.4V38.5767H146.441V41.9824C146.441 42.2705 146.473 42.5122 146.536 42.7075C146.605 42.8979 146.7 43.0493 146.822 43.1616C146.944 43.2788 147.091 43.3618 147.262 43.4106C147.437 43.4595 147.633 43.4839 147.847 43.4839C148.004 43.4839 148.162 43.4766 148.324 43.4619C148.49 43.4473 148.648 43.4277 148.8 43.4033C148.946 43.3838 149.083 43.3618 149.21 43.3374C149.342 43.313 149.454 43.2886 149.547 43.2642L149.744 44.6631C149.603 44.7461 149.437 44.8193 149.246 44.8828C149.056 44.9414 148.853 44.9902 148.639 45.0293C148.424 45.0684 148.199 45.0977 147.965 45.1172C147.735 45.1416 147.508 45.1538 147.284 45.1538C146.849 45.1538 146.453 45.0977 146.097 44.9854C145.745 44.8682 145.445 44.6875 145.196 44.4434C144.942 44.2041 144.747 43.8989 144.61 43.5278C144.473 43.1519 144.405 42.7026 144.405 42.1802V38.5767H142.596V37.0752H144.405V35.1343H146.441ZM152.587 37.0752H156.901V43.3447H159.047V45H152.587V43.3447H154.843V38.7378H152.587V37.0752ZM154.696 35.0464C154.696 34.8901 154.723 34.7461 154.777 34.6143C154.835 34.4775 154.916 34.3604 155.018 34.2627C155.121 34.1699 155.243 34.0967 155.385 34.043C155.531 33.9893 155.692 33.9624 155.868 33.9624C156.229 33.9624 156.515 34.0649 156.725 34.27C156.94 34.4702 157.047 34.729 157.047 35.0464C157.047 35.3638 156.94 35.625 156.725 35.8301C156.515 36.0303 156.229 36.1304 155.868 36.1304C155.692 36.1304 155.531 36.1035 155.385 36.0498C155.243 35.9961 155.121 35.9204 155.018 35.8228C154.916 35.73 154.835 35.6177 154.777 35.4858C154.723 35.3491 154.696 35.2026 154.696 35.0464ZM163.903 45L160.878 37.0752H163.002L164.745 42.6636L164.855 43.2202L164.965 42.6636L166.701 37.0752H168.825L165.815 45H163.903ZM170.444 40.9644C170.444 40.3882 170.527 39.856 170.693 39.3677C170.859 38.8745 171.103 38.4473 171.425 38.0859C171.743 37.7246 172.131 37.4414 172.59 37.2363C173.054 37.0312 173.584 36.9287 174.179 36.9287C174.775 36.9287 175.305 37.0312 175.769 37.2363C176.233 37.4414 176.626 37.7246 176.948 38.0859C177.265 38.4473 177.507 38.8745 177.673 39.3677C177.839 39.856 177.922 40.3882 177.922 40.9644V41.1182C177.922 41.6992 177.839 42.2363 177.673 42.7295C177.507 43.2178 177.265 43.6426 176.948 44.0039C176.63 44.3652 176.24 44.6484 175.776 44.8535C175.312 45.0537 174.785 45.1538 174.194 45.1538C173.598 45.1538 173.066 45.0537 172.597 44.8535C172.133 44.6484 171.743 44.3652 171.425 44.0039C171.103 43.6426 170.859 43.2178 170.693 42.7295C170.527 42.2363 170.444 41.6992 170.444 41.1182V40.9644ZM172.48 41.1182C172.48 41.4502 172.512 41.7627 172.575 42.0557C172.639 42.3438 172.739 42.5952 172.876 42.8101C173.012 43.0298 173.188 43.2031 173.403 43.3301C173.623 43.457 173.886 43.5205 174.194 43.5205C174.492 43.5205 174.748 43.457 174.963 43.3301C175.178 43.2031 175.354 43.0298 175.49 42.8101C175.622 42.5952 175.72 42.3438 175.783 42.0557C175.847 41.7627 175.879 41.4502 175.879 41.1182V40.9644C175.879 40.6421 175.847 40.3369 175.783 40.0488C175.72 39.7607 175.622 39.5068 175.49 39.2871C175.354 39.0674 175.178 38.894 174.963 38.7671C174.748 38.6401 174.487 38.5767 174.179 38.5767C173.877 38.5767 173.618 38.6401 173.403 38.7671C173.188 38.894 173.012 39.0674 172.876 39.2871C172.739 39.5068 172.639 39.7607 172.575 40.0488C172.512 40.3369 172.48 40.6421 172.48 40.9644V41.1182Z" fill="#131925"/>
<rect x="13.5" y="346.5" width="224" height="33" rx="5.5" stroke="#929292"/>
<path d="M67.2799 362.639H63.192V365.448H67.9703V367H61.2643V357.047H67.9498V358.612H63.192V361.121H67.2799V362.639ZM69.9614 367V359.604H71.6841L71.8003 360.629C71.896 360.492 72.0008 360.367 72.1148 360.253C72.2287 360.139 72.3495 360.036 72.4771 359.945C72.6958 359.79 72.9351 359.672 73.1948 359.59C73.4546 359.508 73.7303 359.467 74.022 359.467C74.3957 359.467 74.7375 359.521 75.0474 359.631C75.3573 359.74 75.6262 359.913 75.854 360.15C76.0773 360.392 76.2505 360.702 76.3736 361.08C76.5012 361.454 76.565 361.91 76.565 362.447V367H74.6646V362.475C74.6646 362.183 74.6304 361.944 74.562 361.757C74.4982 361.565 74.4048 361.415 74.2818 361.306C74.1587 361.196 74.0106 361.121 73.8374 361.08C73.6642 361.035 73.4683 361.012 73.2495 361.012C73.0672 361.012 72.8986 361.032 72.7437 361.073C72.5933 361.114 72.4588 361.176 72.3404 361.258C72.2446 361.317 72.1581 361.388 72.0806 361.47C72.0031 361.552 71.9325 361.643 71.8687 361.743V367H69.9614ZM82.186 357.792V359.604H84.9477V361.005H82.186V364.184C82.186 364.452 82.2156 364.678 82.2748 364.86C82.3386 365.038 82.4275 365.179 82.5414 365.284C82.6554 365.394 82.7921 365.471 82.9516 365.517C83.1157 365.562 83.298 365.585 83.4985 365.585C83.6443 365.585 83.7924 365.578 83.9428 365.564C84.0978 365.551 84.2459 365.533 84.3871 365.51C84.5239 365.492 84.6515 365.471 84.77 365.448C84.893 365.425 84.9978 365.403 85.0844 365.38L85.269 366.686C85.1368 366.763 84.9819 366.831 84.8041 366.891C84.6264 366.945 84.4373 366.991 84.2368 367.027C84.0362 367.064 83.8266 367.091 83.6079 367.109C83.3937 367.132 83.1817 367.144 82.9721 367.144C82.5665 367.144 82.1974 367.091 81.8647 366.986C81.5366 366.877 81.2563 366.708 81.0239 366.48C80.7869 366.257 80.6046 365.972 80.477 365.626C80.3494 365.275 80.2856 364.856 80.2856 364.368V361.005H78.5971V359.604H80.2856V357.792H82.186ZM92.7494 359.467C93.0365 359.467 93.3008 359.487 93.5423 359.528C93.7884 359.565 93.9867 359.606 94.1371 359.651L93.8568 361.545C93.6061 361.486 93.3487 361.442 93.0843 361.415C92.8246 361.383 92.5762 361.367 92.3392 361.367C92.0931 361.367 91.8698 361.39 91.6693 361.436C91.4733 361.477 91.2979 361.54 91.1429 361.627C90.9561 361.727 90.7966 361.855 90.6644 362.01C90.5323 362.165 90.4229 362.347 90.3363 362.557V367H88.4359V359.604H90.2064L90.2816 360.649L90.2953 360.813C90.5961 360.394 90.9561 360.066 91.3754 359.829C91.7946 359.588 92.2526 359.467 92.7494 359.467ZM99.7649 367.137C99.1953 367.137 98.678 367.043 98.2132 366.856C97.7483 366.67 97.3496 366.414 97.0169 366.091C96.6842 365.772 96.4267 365.396 96.2444 364.963C96.0667 364.525 95.9778 364.058 95.9778 363.562V363.288C95.9778 362.723 96.0667 362.208 96.2444 361.743C96.4221 361.274 96.6705 360.87 96.9895 360.533C97.3085 360.196 97.6868 359.934 98.1243 359.747C98.5618 359.56 99.038 359.467 99.553 359.467C100.086 359.467 100.56 359.556 100.975 359.733C101.394 359.907 101.75 360.153 102.041 360.472C102.328 360.791 102.547 361.176 102.698 361.627C102.848 362.074 102.923 362.568 102.923 363.11V363.917H97.9055V363.938C97.9694 364.234 98.0514 364.473 98.1516 364.655C98.2519 364.833 98.3863 364.995 98.555 365.141C98.7281 365.291 98.9264 365.407 99.1497 365.489C99.373 365.571 99.6168 365.612 99.8811 365.612C100.255 365.612 100.617 365.542 100.968 365.4C101.319 365.259 101.604 365.047 101.823 364.765L102.773 365.79C102.531 366.132 102.148 366.442 101.624 366.72C101.1 366.998 100.48 367.137 99.7649 367.137ZM99.5393 361.005C99.3251 361.005 99.1292 361.044 98.9514 361.121C98.7737 361.194 98.6188 361.301 98.4866 361.442C98.3499 361.584 98.236 361.752 98.1448 361.948C98.0537 362.144 97.9853 362.363 97.9397 362.604H101.057V362.454C101.057 362.254 101.02 362.064 100.948 361.887C100.875 361.709 100.774 361.554 100.647 361.422C100.519 361.294 100.362 361.194 100.175 361.121C99.9928 361.044 99.7809 361.005 99.5393 361.005ZM119.709 362.639H115.621V365.448H120.4V367H113.693V357.047H120.379V358.612H115.621V361.121H119.709V362.639ZM123.573 359.604L123.628 360.499C123.769 360.18 123.963 359.929 124.209 359.747C124.46 359.56 124.763 359.467 125.118 359.467C125.291 359.467 125.446 359.487 125.583 359.528C125.72 359.569 125.838 359.633 125.939 359.72C126.016 359.784 126.082 359.861 126.137 359.952C126.196 360.039 126.246 360.139 126.287 360.253C126.351 360.144 126.422 360.046 126.499 359.959C126.581 359.868 126.67 359.79 126.766 359.727C126.884 359.645 127.019 359.581 127.169 359.535C127.319 359.49 127.483 359.467 127.661 359.467C127.884 359.467 128.092 359.508 128.283 359.59C128.479 359.672 128.65 359.802 128.796 359.979C128.937 360.162 129.047 360.396 129.124 360.684C129.206 360.966 129.247 361.312 129.247 361.723V367H127.518V361.716C127.518 361.575 127.502 361.458 127.47 361.367C127.442 361.276 127.404 361.203 127.354 361.148C127.303 361.098 127.244 361.064 127.176 361.046C127.112 361.023 127.046 361.012 126.978 361.012C126.905 361.012 126.839 361.021 126.779 361.039C126.725 361.057 126.672 361.082 126.622 361.114C126.581 361.146 126.545 361.183 126.513 361.224C126.481 361.26 126.453 361.303 126.431 361.354C126.431 361.363 126.431 361.383 126.431 361.415C126.431 361.447 126.431 361.49 126.431 361.545V367H124.756V361.709C124.756 361.568 124.742 361.451 124.715 361.36C124.688 361.269 124.651 361.199 124.606 361.148C124.555 361.098 124.498 361.064 124.435 361.046C124.371 361.023 124.302 361.012 124.23 361.012C124.148 361.012 124.075 361.025 124.011 361.053C123.947 361.08 123.89 361.119 123.84 361.169C123.803 361.205 123.772 361.249 123.744 361.299C123.717 361.349 123.692 361.404 123.669 361.463V367H121.939V359.604H123.573ZM146.71 363.883C146.678 364.384 146.569 364.835 146.382 365.236C146.199 365.637 145.953 365.979 145.643 366.262C145.334 366.544 144.964 366.763 144.536 366.918C144.108 367.068 143.634 367.144 143.114 367.144C142.704 367.144 142.323 367.091 141.973 366.986C141.626 366.877 141.314 366.722 141.036 366.521C140.781 366.335 140.553 366.109 140.352 365.845C140.156 365.58 139.99 365.289 139.853 364.97C139.721 364.651 139.619 364.3 139.546 363.917C139.477 363.534 139.443 363.129 139.443 362.7V361.36C139.443 360.959 139.475 360.579 139.539 360.219C139.603 359.854 139.698 359.517 139.826 359.207C139.972 358.829 140.163 358.492 140.4 358.195C140.637 357.899 140.906 357.648 141.207 357.443C141.476 357.27 141.77 357.138 142.089 357.047C142.412 356.951 142.759 356.903 143.128 356.903C143.675 356.903 144.16 356.981 144.584 357.136C145.012 357.291 145.377 357.512 145.678 357.799C145.978 358.086 146.215 358.437 146.389 358.852C146.562 359.266 146.671 359.733 146.717 360.253H144.803C144.784 359.957 144.739 359.697 144.666 359.474C144.598 359.25 144.497 359.063 144.365 358.913C144.228 358.767 144.058 358.658 143.852 358.585C143.652 358.507 143.41 358.469 143.128 358.469C142.977 358.469 142.836 358.485 142.704 358.517C142.576 358.549 142.458 358.596 142.349 358.66C142.162 358.77 142.002 358.927 141.87 359.132C141.742 359.332 141.64 359.567 141.562 359.836C141.503 360.046 141.46 360.278 141.433 360.533C141.405 360.784 141.391 361.055 141.391 361.347V362.7C141.391 363.097 141.412 363.452 141.453 363.767C141.499 364.076 141.567 364.348 141.658 364.58C141.722 364.74 141.797 364.881 141.884 365.004C141.975 365.127 142.077 365.229 142.191 365.312C142.314 365.403 142.451 365.471 142.601 365.517C142.756 365.558 142.927 365.578 143.114 365.578C143.365 365.578 143.59 365.546 143.791 365.482C143.991 365.419 144.162 365.318 144.304 365.182C144.445 365.045 144.557 364.869 144.639 364.655C144.721 364.441 144.771 364.184 144.789 363.883H146.71ZM148.346 363.233C148.346 362.696 148.423 362.199 148.578 361.743C148.733 361.283 148.961 360.884 149.262 360.547C149.558 360.21 149.92 359.945 150.348 359.754C150.781 359.562 151.276 359.467 151.832 359.467C152.388 359.467 152.882 359.562 153.315 359.754C153.748 359.945 154.115 360.21 154.416 360.547C154.712 360.884 154.938 361.283 155.093 361.743C155.248 362.199 155.325 362.696 155.325 363.233V363.377C155.325 363.919 155.248 364.421 155.093 364.881C154.938 365.337 154.712 365.733 154.416 366.07C154.12 366.408 153.755 366.672 153.322 366.863C152.889 367.05 152.397 367.144 151.846 367.144C151.29 367.144 150.793 367.05 150.355 366.863C149.922 366.672 149.558 366.408 149.262 366.07C148.961 365.733 148.733 365.337 148.578 364.881C148.423 364.421 148.346 363.919 148.346 363.377V363.233ZM150.246 363.377C150.246 363.687 150.276 363.979 150.335 364.252C150.394 364.521 150.487 364.756 150.615 364.956C150.743 365.161 150.907 365.323 151.107 365.441C151.312 365.56 151.558 365.619 151.846 365.619C152.124 365.619 152.363 365.56 152.563 365.441C152.764 365.323 152.928 365.161 153.055 364.956C153.179 364.756 153.27 364.521 153.329 364.252C153.388 363.979 153.418 363.687 153.418 363.377V363.233C153.418 362.933 153.388 362.648 153.329 362.379C153.27 362.11 153.179 361.873 153.055 361.668C152.928 361.463 152.764 361.301 152.563 361.183C152.363 361.064 152.119 361.005 151.832 361.005C151.549 361.005 151.308 361.064 151.107 361.183C150.907 361.301 150.743 361.463 150.615 361.668C150.487 361.873 150.394 362.11 150.335 362.379C150.276 362.648 150.246 362.933 150.246 363.233V363.377ZM157.343 367V359.604H159.066L159.182 360.629C159.278 360.492 159.383 360.367 159.497 360.253C159.611 360.139 159.731 360.036 159.859 359.945C160.078 359.79 160.317 359.672 160.577 359.59C160.837 359.508 161.112 359.467 161.404 359.467C161.778 359.467 162.12 359.521 162.429 359.631C162.739 359.74 163.008 359.913 163.236 360.15C163.459 360.392 163.633 360.702 163.756 361.08C163.883 361.454 163.947 361.91 163.947 362.447V367H162.047V362.475C162.047 362.183 162.012 361.944 161.944 361.757C161.88 361.565 161.787 361.415 161.664 361.306C161.541 361.196 161.393 361.121 161.219 361.08C161.046 361.035 160.85 361.012 160.632 361.012C160.449 361.012 160.281 361.032 160.126 361.073C159.975 361.114 159.841 361.176 159.722 361.258C159.627 361.317 159.54 361.388 159.463 361.47C159.385 361.552 159.315 361.643 159.251 361.743V367H157.343ZM169.568 357.792V359.604H172.33V361.005H169.568V364.184C169.568 364.452 169.598 364.678 169.657 364.86C169.721 365.038 169.81 365.179 169.923 365.284C170.037 365.394 170.174 365.471 170.334 365.517C170.498 365.562 170.68 365.585 170.881 365.585C171.026 365.585 171.174 365.578 171.325 365.564C171.48 365.551 171.628 365.533 171.769 365.51C171.906 365.492 172.034 365.471 172.152 365.448C172.275 365.425 172.38 365.403 172.466 365.38L172.651 366.686C172.519 366.763 172.364 366.831 172.186 366.891C172.008 366.945 171.819 366.991 171.619 367.027C171.418 367.064 171.209 367.091 170.99 367.109C170.776 367.132 170.564 367.144 170.354 367.144C169.949 367.144 169.579 367.091 169.247 366.986C168.919 366.877 168.638 366.708 168.406 366.48C168.169 366.257 167.987 365.972 167.859 365.626C167.731 365.275 167.668 364.856 167.668 364.368V361.005H165.979V359.604H167.668V357.792H169.568ZM179.441 367C179.395 366.909 179.357 366.804 179.325 366.686C179.293 366.567 179.266 366.442 179.243 366.31C179.138 366.424 179.017 366.531 178.88 366.631C178.744 366.731 178.593 366.818 178.429 366.891C178.261 366.968 178.076 367.027 177.876 367.068C177.675 367.114 177.459 367.137 177.226 367.137C176.848 367.137 176.499 367.082 176.18 366.973C175.866 366.863 175.595 366.711 175.367 366.515C175.139 366.319 174.961 366.086 174.834 365.817C174.706 365.544 174.642 365.248 174.642 364.929C174.642 364.519 174.722 364.156 174.881 363.842C175.041 363.523 175.28 363.261 175.599 363.056C175.886 362.869 176.239 362.728 176.659 362.632C177.083 362.532 177.568 362.481 178.115 362.481H179.174V362.044C179.174 361.871 179.147 361.716 179.092 361.579C179.038 361.438 178.956 361.317 178.846 361.217C178.732 361.112 178.589 361.032 178.416 360.978C178.247 360.918 178.049 360.889 177.821 360.889C177.62 360.889 177.447 360.914 177.301 360.964C177.155 361.009 177.037 361.076 176.946 361.162C176.864 361.24 176.802 361.333 176.761 361.442C176.725 361.552 176.707 361.673 176.707 361.805H174.806C174.806 361.49 174.875 361.192 175.011 360.909C175.153 360.627 175.358 360.378 175.627 360.164C175.891 359.95 176.214 359.781 176.597 359.658C176.985 359.531 177.427 359.467 177.923 359.467C178.37 359.467 178.785 359.521 179.168 359.631C179.555 359.74 179.89 359.902 180.172 360.116C180.455 360.33 180.676 360.602 180.836 360.93C180.995 361.253 181.075 361.629 181.075 362.058V365.229C181.075 365.626 181.1 365.954 181.15 366.214C181.2 366.474 181.273 366.697 181.369 366.884V367H179.441ZM177.629 365.667C177.821 365.667 177.999 365.644 178.163 365.599C178.327 365.553 178.475 365.494 178.607 365.421C178.739 365.348 178.853 365.266 178.949 365.175C179.044 365.079 179.12 364.983 179.174 364.888V363.616H178.204C177.907 363.616 177.655 363.646 177.445 363.705C177.235 363.76 177.064 363.837 176.932 363.938C176.8 364.042 176.702 364.168 176.638 364.313C176.574 364.455 176.543 364.61 176.543 364.778C176.543 364.91 176.565 365.034 176.611 365.147C176.661 365.257 176.732 365.35 176.823 365.428C176.914 365.501 177.026 365.56 177.158 365.605C177.294 365.646 177.452 365.667 177.629 365.667ZM187.044 357.792V359.604H189.806V361.005H187.044V364.184C187.044 364.452 187.074 364.678 187.133 364.86C187.197 365.038 187.286 365.179 187.4 365.284C187.514 365.394 187.651 365.471 187.81 365.517C187.974 365.562 188.156 365.585 188.357 365.585C188.503 365.585 188.651 365.578 188.801 365.564C188.956 365.551 189.104 365.533 189.246 365.51C189.382 365.492 189.51 365.471 189.628 365.448C189.751 365.425 189.856 365.403 189.943 365.38L190.127 366.686C189.995 366.763 189.84 366.831 189.663 366.891C189.485 366.945 189.296 366.991 189.095 367.027C188.895 367.064 188.685 367.091 188.466 367.109C188.252 367.132 188.04 367.144 187.831 367.144C187.425 367.144 187.056 367.091 186.723 366.986C186.395 366.877 186.115 366.708 185.882 366.48C185.645 366.257 185.463 365.972 185.335 365.626C185.208 365.275 185.144 364.856 185.144 364.368V361.005H183.456V359.604H185.144V357.792H187.044ZM192.037 363.233C192.037 362.696 192.114 362.199 192.269 361.743C192.424 361.283 192.652 360.884 192.953 360.547C193.249 360.21 193.611 359.945 194.039 359.754C194.472 359.562 194.967 359.467 195.523 359.467C196.079 359.467 196.573 359.562 197.006 359.754C197.439 359.945 197.806 360.21 198.107 360.547C198.403 360.884 198.629 361.283 198.784 361.743C198.939 362.199 199.016 362.696 199.016 363.233V363.377C199.016 363.919 198.939 364.421 198.784 364.881C198.629 365.337 198.403 365.733 198.107 366.07C197.811 366.408 197.446 366.672 197.013 366.863C196.58 367.05 196.088 367.144 195.537 367.144C194.981 367.144 194.484 367.05 194.046 366.863C193.613 366.672 193.249 366.408 192.953 366.07C192.652 365.733 192.424 365.337 192.269 364.881C192.114 364.421 192.037 363.919 192.037 363.377V363.233ZM193.937 363.377C193.937 363.687 193.967 363.979 194.026 364.252C194.085 364.521 194.178 364.756 194.306 364.956C194.434 365.161 194.598 365.323 194.798 365.441C195.003 365.56 195.249 365.619 195.537 365.619C195.815 365.619 196.054 365.56 196.254 365.441C196.455 365.323 196.619 365.161 196.746 364.956C196.87 364.756 196.961 364.521 197.02 364.252C197.079 363.979 197.109 363.687 197.109 363.377V363.233C197.109 362.933 197.079 362.648 197.02 362.379C196.961 362.11 196.87 361.873 196.746 361.668C196.619 361.463 196.455 361.301 196.254 361.183C196.054 361.064 195.81 361.005 195.523 361.005C195.24 361.005 194.999 361.064 194.798 361.183C194.598 361.301 194.434 361.463 194.306 361.668C194.178 361.873 194.085 362.11 194.026 362.379C193.967 362.648 193.937 362.933 193.937 363.233V363.377Z" fill="#2F2E41"/>
<g clip-path="url(#clip0_0_1)">
<path d="M139.951 176.051H139.326V158.917C139.326 156.287 138.282 153.764 136.425 151.905C134.567 150.045 132.047 149 129.42 149H93.1561C91.8551 149 90.5669 149.256 89.365 149.755C88.1631 150.253 87.071 150.984 86.1511 151.904C85.2312 152.825 84.5015 153.919 84.0036 155.122C83.5058 156.325 83.2495 157.614 83.2495 158.917V252.914C83.2495 254.217 83.5058 255.506 84.0036 256.709C84.5015 257.913 85.2312 259.006 86.1511 259.927C87.071 260.847 88.1631 261.578 89.365 262.076C90.5669 262.575 91.8551 262.831 93.156 262.831H129.42C132.047 262.831 134.567 261.786 136.425 259.927C138.282 258.067 139.326 255.545 139.326 252.914V188.247H139.951L139.951 176.051Z" fill="#3F3D56"/>
<path d="M129.82 151.58H125.086C125.304 152.114 125.387 152.694 125.328 153.268C125.269 153.842 125.07 154.392 124.749 154.871C124.427 155.35 123.993 155.743 123.484 156.014C122.976 156.285 122.408 156.427 121.832 156.427H101.057C100.481 156.427 99.913 156.285 99.4043 156.014C98.8957 155.743 98.4615 155.35 98.14 154.871C97.8185 154.392 97.6195 153.842 97.5607 153.268C97.5019 152.694 97.585 152.114 97.8027 151.58H93.3815C91.4194 151.58 89.5377 152.36 88.1503 153.749C86.7628 155.138 85.9834 157.021 85.9834 158.986V252.845C85.9834 253.818 86.1748 254.781 86.5465 255.679C86.9183 256.578 87.4633 257.394 88.1503 258.082C88.8372 258.77 89.6528 259.315 90.5504 259.687C91.4479 260.06 92.41 260.251 93.3815 260.251H129.82C130.791 260.251 131.753 260.06 132.651 259.687C133.548 259.315 134.364 258.77 135.051 258.082C135.738 257.394 136.283 256.578 136.655 255.679C137.026 254.781 137.218 253.818 137.218 252.845V158.986C137.218 158.013 137.026 157.05 136.655 156.152C136.283 155.253 135.738 154.437 135.051 153.749C134.364 153.061 133.548 152.516 132.651 152.144C131.753 151.771 130.791 151.58 129.82 151.58V151.58Z" fill="white"/>
<path d="M111.537 169.059H90.3486V205.293H111.537V169.059Z" fill="#E6E6E6"/>
<path d="M132.787 208.13H115.177V249.151H132.787V208.13Z" fill="#E6E6E6"/>
<path d="M132.851 169.059H115.194V179.033H132.851V169.059Z" fill="#E6E6E6"/>
<path d="M132.851 181.81H115.194V192.541H132.851V181.81Z" fill="#B6C3B8"/>
<path d="M132.851 195.319H115.194V205.292H132.851V195.319Z" fill="#E6E6E6"/>
<path d="M111.563 208.13H90.3748V223.921H111.563V208.13Z" fill="#E6E6E6"/>
<path d="M111.563 226.982H90.3748V249.185H111.563V226.982Z" fill="#E6E6E6"/>
<path d="M159.691 194.042C159.691 197.49 156.506 196.969 152.577 196.969C148.648 196.969 145.463 197.49 145.463 194.042C145.463 190.594 147.019 184.482 152.577 184.482C158.327 184.482 159.691 190.594 159.691 194.042Z" fill="#2F2E41"/>
<path d="M132.504 187.772C132.377 188.029 132.308 188.311 132.302 188.598C132.295 188.885 132.352 189.169 132.467 189.432C132.583 189.694 132.754 189.928 132.97 190.117C133.185 190.306 133.439 190.446 133.715 190.526L134.073 197.488L136.988 195.341L136.201 189.058C136.304 188.586 136.231 188.093 135.996 187.672C135.76 187.25 135.379 186.93 134.923 186.771C134.467 186.613 133.969 186.627 133.523 186.812C133.078 186.996 132.715 187.338 132.504 187.772V187.772Z" fill="#FFB8B8"/>
<path d="M164.458 227.121C164.616 226.881 164.72 226.611 164.762 226.327C164.804 226.043 164.784 225.754 164.702 225.479C164.621 225.204 164.48 224.95 164.29 224.736C164.099 224.521 163.865 224.351 163.602 224.237L164.118 217.284L160.957 219.049L160.951 225.381C160.789 225.836 160.8 226.334 160.981 226.782C161.162 227.23 161.5 227.595 161.932 227.81C162.365 228.024 162.86 228.073 163.326 227.945C163.791 227.818 164.194 227.525 164.458 227.121Z" fill="#FFB8B8"/>
<path d="M149.901 260.589H152.29L153.427 251.363L149.9 251.364L149.901 260.589Z" fill="#FFB8B8"/>
<path d="M149.292 259.808L153.997 259.808H153.997C154.391 259.808 154.781 259.886 155.145 260.037C155.509 260.188 155.839 260.409 156.118 260.687C156.396 260.966 156.617 261.297 156.768 261.661C156.919 262.026 156.996 262.416 156.996 262.81V262.908L149.292 262.908L149.292 259.808Z" fill="#2F2E41"/>
<path d="M165.104 260.589H167.493L168.63 251.363L165.104 251.364L165.104 260.589Z" fill="#FFB8B8"/>
<path d="M164.494 259.808L169.2 259.808H169.2C169.594 259.808 169.984 259.886 170.348 260.037C170.712 260.188 171.042 260.409 171.321 260.687C171.599 260.966 171.82 261.297 171.971 261.661C172.121 262.026 172.199 262.416 172.199 262.81V262.908L164.494 262.908L164.494 259.808Z" fill="#2F2E41"/>
<path d="M163.74 223.29L163.636 223.271C162.765 223.113 161.884 222.954 161.11 222.787L161.033 222.77L161.033 222.692C161.02 219.156 161.006 215.62 160.987 212.052C159.137 208.319 158.359 204.146 158.74 199.997L158.745 199.953L158.781 199.927C159.118 199.693 159.511 199.553 159.92 199.521C160.33 199.489 160.74 199.567 161.109 199.747C161.47 199.945 161.779 200.226 162.009 200.567C162.24 200.908 162.386 201.3 162.434 201.709C163.139 205.551 163.868 209.53 164.681 213.452L164.684 213.466L164.683 213.48C164.381 216.678 164.07 219.985 163.75 223.185L163.74 223.29Z" fill="#B6C3B8"/>
<path d="M162.182 257.301L162.163 257.211C161.045 251.918 159.966 247.608 158.922 243.44C157.672 238.445 156.486 233.711 155.29 227.586C155.454 235.31 155.836 240.86 156.275 247.239C156.473 250.12 156.678 253.098 156.885 256.575L156.892 256.681L156.786 256.679C153.046 256.583 149.214 256.352 145.509 256.128L145.411 256.122L145.418 256.024C146.119 245.673 146.339 238.947 146.5 234.036C146.838 223.674 146.89 222.082 150.746 213.313C150.892 212.98 151.764 211.997 152.723 212.147L160.309 213.329L160.322 213.396C160.536 214.475 161.598 217.75 163.069 222.283C166.212 231.974 170.961 246.618 172.445 255.347L172.462 255.446L172.363 255.46C170.208 255.767 168.657 256.086 167.157 256.395C165.737 256.687 164.27 256.989 162.272 257.288L162.182 257.301Z" fill="#2F2E41"/>
<path d="M155.589 216.068C153.564 216.068 151.563 215.365 150.128 213.996C149.904 213.865 149.714 213.682 149.575 213.463C149.436 213.244 149.352 212.994 149.329 212.736C149.293 212.499 149.308 212.257 149.375 212.026C149.441 211.796 149.558 211.583 149.715 211.402C148.309 209.698 146.856 207.937 145.466 206.143L145.428 206.093L145.472 206.008C146.382 204.269 147.322 202.47 148.225 200.693C148.288 200.538 148.392 200.403 148.525 200.302C148.658 200.201 148.816 200.138 148.982 200.12C149.126 200.092 149.274 200.095 149.418 200.127C149.561 200.159 149.696 200.22 149.815 200.306L149.817 200.263C149.854 199.363 149.892 198.463 149.931 197.61L149.935 197.519L150.026 197.517C151.763 197.479 153.559 197.439 155.322 197.335L155.39 197.331L156.264 199.284C157.685 199.146 159.115 199.436 160.37 200.118L160.428 200.149L160.421 200.214C160.069 203.572 160.145 206.96 160.649 210.298C160.621 211.822 160.592 213.38 160.283 214.621L160.274 214.658L160.243 214.679C158.864 215.595 157.244 216.078 155.589 216.068Z" fill="#B6C3B8"/>
<path d="M148.136 207.593L148.019 207.539C146.659 206.856 145.294 206.098 143.974 205.365L143.792 205.33C140.317 204.631 138.403 204.247 135.268 202.406L135.243 202.392L135.231 202.367C133.661 199.366 133.223 196.742 133.615 192.686L133.623 192.605L133.704 192.598C134.044 192.571 134.598 192.552 135.133 192.534C135.655 192.517 136.193 192.499 136.524 192.473L136.6 192.467L136.624 192.54C137.035 193.81 137.384 194.994 137.753 196.249C138.133 197.538 138.526 198.871 139.004 200.351C140.754 200.855 145.447 200.704 146.906 200.505C147.748 200.419 148.599 200.808 149.186 201.543L149.213 201.577L149.206 201.62C148.885 203.582 148.516 205.556 148.159 207.465L148.136 207.593Z" fill="#B6C3B8"/>
<path d="M156.69 194.285C157.958 191.963 157.105 189.052 154.785 187.782C152.466 186.513 149.557 187.366 148.289 189.688C147.021 192.011 147.873 194.922 150.193 196.192C152.513 197.461 155.421 196.608 156.69 194.285Z" fill="#FFB8B8"/>
<path d="M147.021 191.701H148.915L149.75 189.36L149.917 191.701H150.822L151.309 190.336L151.407 191.701H158.131C158.131 190.356 157.597 189.066 156.647 188.115C155.696 187.163 154.407 186.629 153.063 186.629H152.089C150.745 186.629 149.456 187.163 148.506 188.115C147.555 189.066 147.021 190.356 147.021 191.701Z" fill="#2F2E41"/>
<path d="M186.844 263H67.1562C67.1148 263 67.0751 262.983 67.0458 262.954C67.0165 262.925 67 262.885 67 262.843C67 262.802 67.0165 262.762 67.0458 262.733C67.0751 262.703 67.1148 262.687 67.1562 262.687H186.844C186.885 262.687 186.925 262.703 186.954 262.733C186.984 262.762 187 262.802 187 262.843C187 262.885 186.984 262.925 186.954 262.954C186.925 262.983 186.885 263 186.844 263Z" fill="#3F3D56"/>
</g>
<defs>
<filter id="filter0_d_0_1" x="0" y="0" width="250" height="399" filterUnits="userSpaceOnUse" color-interpolation-filters="sRGB">
<feFlood flood-opacity="0" result="BackgroundImageFix"/>
<feColorMatrix in="SourceAlpha" type="matrix" values="0 0 0 0 0 0 0 0 0 0 0 0 0 0 0 0 0 0 127 0" result="hardAlpha"/>
<feOffset dy="1"/>
<feGaussianBlur stdDeviation="2.5"/>
<feColorMatrix type="matrix" values="0 0 0 0 0.105882 0 0 0 0 0.141176 0 0 0 0 0.184314 0 0 0 0.1 0"/>
<feBlend mode="normal" in2="BackgroundImageFix" result="effect1_dropShadow_0_1"/>
<feBlend mode="normal" in="SourceGraphic" in2="effect1_dropShadow_0_1" result="shape"/>
</filter>
<clipPath id="clip0_0_1">
<rect width="120" height="114" fill="white" transform="translate(67 149)"/>
</clipPath>
</defs>
</svg>
